<svg version="1.1" viewBox="0.0 0.0 840.0 400.0" fill="none" stroke="none" stroke-linecap="square" stroke-miterlimit="10" xmlns:xlink="http://www.w3.org/1999/xlink" xmlns="http://www.w3.org/2000/svg"><clipPath id="p.0"><path d="m0 0l1024.0 0l0 768.0l-1024.0 0l0 -768.0z" clip-rule="nonzero"/></clipPath><g clip-path="url(#p.0)"><path fill="#000000" fill-opacity="0.0" d="m0 0l1024.0 0l0 768.0l-1024.0 0z" fill-rule="evenodd"/><path fill="#fc561f" d="m0 180.2727l151.68504 0l0 51.27559l-151.68504 0z" fill-rule="evenodd"/><path fill="#ffffff" d="m26.768303 211.7705l0 -11.453125l1.515625 0l0 10.09375l5.640625 0l0 1.359375l-7.15625 0zm8.7890625 -9.84375l0 -1.609375l1.40625 0l0 1.609375l-1.40625 0zm0 9.84375l0 -8.296875l1.40625 0l0 8.296875l-1.40625 0zm5.8515625 0l-3.15625 -8.296875l1.484375 0l1.78125 4.96875q0.296875 0.796875 0.53125 1.671875q0.1875 -0.65625 0.53125 -1.578125l1.84375 -5.0625l1.4375 0l-3.140625 8.296875l-1.3125 0zm11.375 -2.671875l1.453125 0.171875q-0.34375 1.28125 -1.28125 1.984375q-0.921875 0.703125 -2.359375 0.703125q-1.828125 0 -2.890625 -1.125q-1.0625 -1.125 -1.0625 -3.140625q0 -2.09375 1.078125 -3.25q1.078125 -1.15625 2.796875 -1.15625q1.65625 0 2.703125 1.140625q1.0625 1.125 1.0625 3.171875q0 0.125 0 0.375l-6.1875 0q0.078125 1.375 0.765625 2.109375q0.703125 0.71875 1.734375 0.71875q0.78125 0 1.328125 -0.40625q0.546875 -0.40625 0.859375 -1.296875zm-4.609375 -2.28125l4.625 0q-0.09375 -1.046875 -0.53125 -1.5625q-0.671875 -0.8125 -1.734375 -0.8125q-0.96875 0 -1.640625 0.65625q-0.65625 0.640625 -0.71875 1.71875zm11.9375 1.265625l1.4375 -0.125q0.09375 0.859375 0.46875 1.421875q0.375 0.546875 1.15625 0.890625q0.78125 0.328125 1.75 0.328125q0.875 0 1.53125 -0.25q0.671875 -0.265625 0.984375 -0.703125q0.328125 -0.453125 0.328125 -0.984375q0 -0.546875 -0.3125 -0.9375q-0.3125 -0.40625 -1.03125 -0.6875q-0.453125 -0.171875 -2.03125 -0.546875q-1.578125 -0.390625 -2.21875 -0.71875q-0.8125 -0.4375 -1.21875 -1.0625q-0.40625 -0.640625 -0.40625 -1.4375q0 -0.859375 0.484375 -1.609375q0.5 -0.765625 1.4375 -1.15625q0.953125 -0.390625 2.109375 -0.390625q1.28125 0 2.25 0.421875q0.96875 0.40625 1.484375 1.203125q0.53125 0.796875 0.578125 1.796875l-1.453125 0.109375q-0.125 -1.078125 -0.796875 -1.625q-0.671875 -0.5625 -2.0 -0.5625q-1.375 0 -2.0 0.5q-0.625 0.5 -0.625 1.21875q0 0.609375 0.4375 1.015625q0.4375 0.390625 2.28125 0.8125q1.859375 0.421875 2.546875 0.734375q1.0 0.453125 1.46875 1.171875q0.484375 0.703125 0.484375 1.625q0 0.90625 -0.53125 1.71875q-0.515625 0.8125 -1.5 1.265625q-0.984375 0.453125 -2.203125 0.453125q-1.5625 0 -2.609375 -0.453125q-1.046875 -0.46875 -1.65625 -1.375q-0.59375 -0.90625 -0.625 -2.0625zm16.6875 1.015625l1.453125 0.171875q-0.34375 1.28125 -1.28125 1.984375q-0.921875 0.703125 -2.359375 0.703125q-1.828125 0 -2.890625 -1.125q-1.0625 -1.125 -1.0625 -3.140625q0 -2.09375 1.078125 -3.25q1.078125 -1.15625 2.796875 -1.15625q1.65625 0 2.703125 1.140625q1.0625 1.125 1.0625 3.171875q0 0.125 0 0.375l-6.1875 0q0.078125 1.375 0.765625 2.109375q0.703125 0.71875 1.734375 0.71875q0.78125 0 1.328125 -0.40625q0.546875 -0.40625 0.859375 -1.296875zm-4.609375 -2.28125l4.625 0q-0.09375 -1.046875 -0.53125 -1.5625q-0.671875 -0.8125 -1.734375 -0.8125q-0.96875 0 -1.640625 0.65625q-0.65625 0.640625 -0.71875 1.71875zm7.8203125 4.953125l0 -8.296875l1.265625 0l0 1.25q0.484375 -0.875 0.890625 -1.15625q0.40625 -0.28125 0.90625 -0.28125q0.703125 0 1.4375 0.453125l-0.484375 1.296875q-0.515625 -0.296875 -1.03125 -0.296875q-0.453125 0 -0.828125 0.28125q-0.359375 0.265625 -0.515625 0.765625q-0.234375 0.75 -0.234375 1.640625l0 4.34375l-1.40625 0zm7.640625 0l-3.15625 -8.296875l1.484375 0l1.78125 4.96875q0.296875 0.796875 0.53125 1.671875q0.1875 -0.65625 0.53125 -1.578125l1.84375 -5.0625l1.4375 0l-3.140625 8.296875l-1.3125 0zm5.703125 -9.84375l0 -1.609375l1.40625 0l0 1.609375l-1.40625 0zm0 9.84375l0 -8.296875l1.40625 0l0 8.296875l-1.40625 0zm8.9609375 -3.046875l1.390625 0.1875q-0.234375 1.421875 -1.171875 2.234375q-0.921875 0.8125 -2.28125 0.8125q-1.703125 0 -2.75 -1.109375q-1.03125 -1.125 -1.03125 -3.203125q0 -1.34375 0.4375 -2.34375q0.453125 -1.015625 1.359375 -1.515625q0.921875 -0.5 1.984375 -0.5q1.359375 0 2.21875 0.6875q0.859375 0.671875 1.09375 1.9375l-1.359375 0.203125q-0.203125 -0.828125 -0.703125 -1.25q-0.484375 -0.421875 -1.1875 -0.421875q-1.0625 0 -1.734375 0.765625q-0.65625 0.75 -0.65625 2.40625q0 1.671875 0.640625 2.4375q0.640625 0.75 1.671875 0.75q0.828125 0 1.375 -0.5q0.5625 -0.515625 0.703125 -1.578125zm8.265625 0.375l1.453125 0.171875q-0.34375 1.28125 -1.28125 1.984375q-0.921875 0.703125 -2.359375 0.703125q-1.828125 0 -2.890625 -1.125q-1.0625 -1.125 -1.0625 -3.140625q0 -2.09375 1.078125 -3.25q1.078125 -1.15625 2.796875 -1.15625q1.65625 0 2.703125 1.140625q1.0625 1.125 1.0625 3.171875q0 0.125 0 0.375l-6.1875 0q0.078125 1.375 0.765625 2.109375q0.703125 0.71875 1.734375 0.71875q0.78125 0 1.328125 -0.40625q0.546875 -0.40625 0.859375 -1.296875zm-4.609375 -2.28125l4.625 0q-0.09375 -1.046875 -0.53125 -1.5625q-0.671875 -0.8125 -1.734375 -0.8125q-0.96875 0 -1.640625 0.65625q-0.65625 0.640625 -0.71875 1.71875zm19.28125 3.59375l0 1.359375l-7.578125 0q-0.015625 -0.515625 0.171875 -0.984375q0.28125 -0.765625 0.921875 -1.515625q0.640625 -0.75 1.84375 -1.734375q1.859375 -1.53125 2.515625 -2.421875q0.65625 -0.90625 0.65625 -1.703125q0 -0.828125 -0.59375 -1.40625q-0.59375 -0.578125 -1.5625 -0.578125q-1.015625 0 -1.625 0.609375q-0.609375 0.609375 -0.609375 1.6875l-1.453125 -0.140625q0.15625 -1.625 1.125 -2.46875q0.96875 -0.84375 2.59375 -0.84375q1.65625 0 2.609375 0.921875q0.96875 0.90625 0.96875 2.25q0 0.6875 -0.28125 1.359375q-0.28125 0.65625 -0.9375 1.390625q-0.65625 0.734375 -2.171875 2.015625q-1.265625 1.0625 -1.625 1.453125q-0.359375 0.375 -0.59375 0.75l5.625 0z" fill-rule="nonzero"/><path fill="#fc561f" d="m0 76.651634l151.68504 0l0 51.27559l-151.68504 0z" fill-rule="evenodd"/><path fill="#ffffff" d="m26.768303 108.14943l0 -11.453125l1.515625 0l0 10.09375l5.640625 0l0 1.359375l-7.15625 0zm8.7890625 -9.84375l0 -1.609375l1.40625 0l0 1.609375l-1.40625 0zm0 9.84375l0 -8.296875l1.40625 0l0 8.296875l-1.40625 0zm5.8515625 0l-3.15625 -8.296875l1.484375 0l1.78125 4.96875q0.296875 0.796875 0.53125 1.671875q0.1875 -0.65625 0.53125 -1.578125l1.84375 -5.0625l1.4375 0l-3.140625 8.296875l-1.3125 0zm11.375 -2.671875l1.453125 0.171875q-0.34375 1.28125 -1.28125 1.984375q-0.921875 0.703125 -2.359375 0.703125q-1.828125 0 -2.890625 -1.125q-1.0625 -1.125 -1.0625 -3.140625q0 -2.09375 1.078125 -3.25q1.078125 -1.15625 2.796875 -1.15625q1.65625 0 2.703125 1.140625q1.0625 1.125 1.0625 3.171875q0 0.125 0 0.375l-6.1875 0q0.078125 1.375 0.765625 2.109375q0.703125 0.71875 1.734375 0.71875q0.78125 0 1.328125 -0.40625q0.546875 -0.40625 0.859375 -1.296875zm-4.609375 -2.28125l4.625 0q-0.09375 -1.046875 -0.53125 -1.5625q-0.671875 -0.8125 -1.734375 -0.8125q-0.96875 0 -1.640625 0.65625q-0.65625 0.640625 -0.71875 1.71875zm11.9375 1.265625l1.4375 -0.125q0.09375 0.859375 0.46875 1.421875q0.375 0.546875 1.15625 0.890625q0.78125 0.328125 1.75 0.328125q0.875 0 1.53125 -0.25q0.671875 -0.265625 0.984375 -0.703125q0.328125 -0.453125 0.328125 -0.984375q0 -0.546875 -0.3125 -0.9375q-0.3125 -0.40625 -1.03125 -0.6875q-0.453125 -0.171875 -2.03125 -0.546875q-1.578125 -0.390625 -2.21875 -0.71875q-0.8125 -0.4375 -1.21875 -1.0625q-0.40625 -0.640625 -0.40625 -1.4375q0 -0.859375 0.484375 -1.609375q0.5 -0.765625 1.4375 -1.15625q0.953125 -0.390625 2.109375 -0.390625q1.28125 0 2.25 0.421875q0.96875 0.40625 1.484375 1.203125q0.53125 0.796875 0.578125 1.796875l-1.453125 0.109375q-0.125 -1.078125 -0.796875 -1.625q-0.671875 -0.5625 -2.0 -0.5625q-1.375 0 -2.0 0.5q-0.625 0.5 -0.625 1.21875q0 0.609375 0.4375 1.015625q0.4375 0.390625 2.28125 0.8125q1.859375 0.421875 2.546875 0.734375q1.0 0.453125 1.46875 1.171875q0.484375 0.703125 0.484375 1.625q0 0.90625 -0.53125 1.71875q-0.515625 0.8125 -1.5 1.265625q-0.984375 0.453125 -2.203125 0.453125q-1.5625 0 -2.609375 -0.453125q-1.046875 -0.46875 -1.65625 -1.375q-0.59375 -0.90625 -0.625 -2.0625zm16.6875 1.015625l1.453125 0.171875q-0.34375 1.28125 -1.28125 1.984375q-0.921875 0.703125 -2.359375 0.703125q-1.828125 0 -2.890625 -1.125q-1.0625 -1.125 -1.0625 -3.140625q0 -2.09375 1.078125 -3.25q1.078125 -1.15625 2.796875 -1.15625q1.65625 0 2.703125 1.140625q1.0625 1.125 1.0625 3.171875q0 0.125 0 0.375l-6.1875 0q0.078125 1.375 0.765625 2.109375q0.703125 0.71875 1.734375 0.71875q0.78125 0 1.328125 -0.40625q0.546875 -0.40625 0.859375 -1.296875zm-4.609375 -2.28125l4.625 0q-0.09375 -1.046875 -0.53125 -1.5625q-0.671875 -0.8125 -1.734375 -0.8125q-0.96875 0 -1.640625 0.65625q-0.65625 0.640625 -0.71875 1.71875zm7.8203125 4.953125l0 -8.296875l1.265625 0l0 1.25q0.484375 -0.875 0.890625 -1.15625q0.40625 -0.28125 0.90625 -0.28125q0.703125 0 1.4375 0.453125l-0.484375 1.296875q-0.515625 -0.296875 -1.03125 -0.296875q-0.453125 0 -0.828125 0.28125q-0.359375 0.265625 -0.515625 0.765625q-0.234375 0.75 -0.234375 1.640625l0 4.34375l-1.40625 0zm7.640625 0l-3.15625 -8.296875l1.484375 0l1.78125 4.96875q0.296875 0.796875 0.53125 1.671875q0.1875 -0.65625 0.53125 -1.578125l1.84375 -5.0625l1.4375 0l-3.140625 8.296875l-1.3125 0zm5.703125 -9.84375l0 -1.609375l1.40625 0l0 1.609375l-1.40625 0zm0 9.84375l0 -8.296875l1.40625 0l0 8.296875l-1.40625 0zm8.9609375 -3.046875l1.390625 0.1875q-0.234375 1.421875 -1.171875 2.234375q-0.921875 0.8125 -2.28125 0.8125q-1.703125 0 -2.75 -1.109375q-1.03125 -1.125 -1.03125 -3.203125q0 -1.34375 0.4375 -2.34375q0.453125 -1.015625 1.359375 -1.515625q0.921875 -0.5 1.984375 -0.5q1.359375 0 2.21875 0.6875q0.859375 0.671875 1.09375 1.9375l-1.359375 0.203125q-0.203125 -0.828125 -0.703125 -1.25q-0.484375 -0.421875 -1.1875 -0.421875q-1.0625 0 -1.734375 0.765625q-0.65625 0.75 -0.65625 2.40625q0 1.671875 0.640625 2.4375q0.640625 0.75 1.671875 0.75q0.828125 0 1.375 -0.5q0.5625 -0.515625 0.703125 -1.578125zm8.265625 0.375l1.453125 0.171875q-0.34375 1.28125 -1.28125 1.984375q-0.921875 0.703125 -2.359375 0.703125q-1.828125 0 -2.890625 -1.125q-1.0625 -1.125 -1.0625 -3.140625q0 -2.09375 1.078125 -3.25q1.078125 -1.15625 2.796875 -1.15625q1.65625 0 2.703125 1.140625q1.0625 1.125 1.0625 3.171875q0 0.125 0 0.375l-6.1875 0q0.078125 1.375 0.765625 2.109375q0.703125 0.71875 1.734375 0.71875q0.78125 0 1.328125 -0.40625q0.546875 -0.40625 0.859375 -1.296875zm-4.609375 -2.28125l4.625 0q-0.09375 -1.046875 -0.53125 -1.5625q-0.671875 -0.8125 -1.734375 -0.8125q-0.96875 0 -1.640625 0.65625q-0.65625 0.640625 -0.71875 1.71875zm17.1875 4.953125l-1.40625 0l0 -8.96875q-0.515625 0.484375 -1.34375 0.96875q-0.8125 0.484375 -1.46875 0.734375l0 -1.359375q1.171875 -0.5625 2.046875 -1.34375q0.890625 -0.796875 1.265625 -1.53125l0.90625 0l0 11.5z" fill-rule="nonzero"/><path fill="#ffffff" d="m685.1042 180.27368l151.68506 0l0 51.27559l-151.68506 0z" fill-rule="evenodd"/><path stroke="#fc561f" stroke-width="2.0" stroke-linejoin="round" stroke-linecap="butt" d="m685.1042 180.27368l151.68506 0l0 51.27559l-151.68506 0z" fill-rule="evenodd"/><path fill="#fc561f" d="m726.54047 211.77148l0 -11.453125l4.296875 0q1.3125 0 2.109375 0.34375q0.796875 0.34375 1.234375 1.078125q0.453125 0.71875 0.453125 1.5q0 0.734375 -0.40625 1.390625q-0.390625 0.640625 -1.1875 1.046875q1.03125 0.296875 1.59375 1.03125q0.5625 0.734375 0.5625 1.734375q0 0.8125 -0.34375 1.5q-0.34375 0.6875 -0.84375 1.0625q-0.5 0.375 -1.25 0.578125q-0.75 0.1875 -1.84375 0.1875l-4.375 0zm1.515625 -6.640625l2.484375 0q1.0 0 1.4375 -0.140625q0.578125 -0.171875 0.875 -0.5625q0.296875 -0.40625 0.296875 -1.0q0 -0.578125 -0.28125 -1.0q-0.265625 -0.4375 -0.78125 -0.59375q-0.5 -0.171875 -1.734375 -0.171875l-2.296875 0l0 3.46875zm0 5.28125l2.859375 0q0.734375 0 1.03125 -0.046875q0.515625 -0.09375 0.859375 -0.3125q0.359375 -0.21875 0.578125 -0.640625q0.234375 -0.421875 0.234375 -0.96875q0 -0.640625 -0.328125 -1.109375q-0.328125 -0.46875 -0.90625 -0.65625q-0.578125 -0.203125 -1.671875 -0.203125l-2.65625 0l0 3.9375zm14.453125 0.328125q-0.78125 0.671875 -1.5 0.953125q-0.71875 0.265625 -1.546875 0.265625q-1.375 0 -2.109375 -0.671875q-0.734375 -0.671875 -0.734375 -1.703125q0 -0.609375 0.28125 -1.109375q0.28125 -0.515625 0.71875 -0.8125q0.453125 -0.3125 1.015625 -0.46875q0.421875 -0.109375 1.25 -0.203125q1.703125 -0.203125 2.515625 -0.484375q0 -0.296875 0 -0.375q0 -0.859375 -0.390625 -1.203125q-0.546875 -0.484375 -1.609375 -0.484375q-0.984375 0 -1.46875 0.359375q-0.46875 0.34375 -0.6875 1.21875l-1.375 -0.1875q0.1875 -0.875 0.609375 -1.421875q0.4375 -0.546875 1.25 -0.828125q0.8125 -0.296875 1.875 -0.296875q1.0625 0 1.71875 0.25q0.671875 0.25 0.984375 0.625q0.3125 0.375 0.4375 0.953125q0.078125 0.359375 0.078125 1.296875l0 1.875q0 1.96875 0.078125 2.484375q0.09375 0.515625 0.359375 1.0l-1.46875 0q-0.21875 -0.4375 -0.28125 -1.03125zm-0.109375 -3.140625q-0.765625 0.3125 -2.296875 0.53125q-0.875 0.125 -1.234375 0.28125q-0.359375 0.15625 -0.5625 0.46875q-0.1875 0.296875 -0.1875 0.65625q0 0.5625 0.421875 0.9375q0.4375 0.375 1.25 0.375q0.8125 0 1.4375 -0.34375q0.640625 -0.359375 0.9375 -0.984375q0.234375 -0.46875 0.234375 -1.40625l0 -0.515625zm6.6640625 2.90625l0.203125 1.25q-0.59375 0.125 -1.0625 0.125q-0.765625 0 -1.1875 -0.234375q-0.421875 -0.25 -0.59375 -0.640625q-0.171875 -0.40625 -0.171875 -1.671875l0 -4.765625l-1.03125 0l0 -1.09375l1.03125 0l0 -2.0625l1.40625 -0.84375l0 2.90625l1.40625 0l0 1.09375l-1.40625 0l0 4.84375q0 0.609375 0.0625 0.78125q0.078125 0.171875 0.25 0.28125q0.171875 0.09375 0.484375 0.09375q0.234375 0 0.609375 -0.0625zm6.7890625 -1.78125l1.390625 0.1875q-0.234375 1.421875 -1.171875 2.234375q-0.921875 0.8125 -2.28125 0.8125q-1.703125 0 -2.75 -1.109375q-1.03125 -1.125 -1.03125 -3.203125q0 -1.34375 0.4375 -2.34375q0.453125 -1.015625 1.359375 -1.515625q0.921875 -0.5 1.984375 -0.5q1.359375 0 2.21875 0.6875q0.859375 0.671875 1.09375 1.9375l-1.359375 0.203125q-0.203125 -0.828125 -0.703125 -1.25q-0.484375 -0.421875 -1.1875 -0.421875q-1.0625 0 -1.734375 0.765625q-0.65625 0.75 -0.65625 2.40625q0 1.671875 0.640625 2.4375q0.640625 0.75 1.671875 0.75q0.828125 0 1.375 -0.5q0.5625 -0.515625 0.703125 -1.578125zm2.59375 3.046875l0 -11.453125l1.40625 0l0 4.109375q0.984375 -1.140625 2.484375 -1.140625q0.921875 0 1.59375 0.359375q0.6875 0.359375 0.96875 1.0q0.296875 0.640625 0.296875 1.859375l0 5.265625l-1.40625 0l0 -5.265625q0 -1.046875 -0.453125 -1.53125q-0.453125 -0.484375 -1.296875 -0.484375q-0.625 0 -1.171875 0.328125q-0.546875 0.328125 -0.78125 0.890625q-0.234375 0.546875 -0.234375 1.515625l0 4.546875l-1.40625 0zm12.75 -3.25l1.359375 -0.1875q0.0625 1.3125 0.5 1.796875q0.4375 0.484375 1.203125 0.484375q0.578125 0 0.984375 -0.265625q0.421875 -0.265625 0.578125 -0.703125q0.15625 -0.453125 0.15625 -1.4375l0 -7.890625l1.515625 0l0 7.796875q0 1.4375 -0.359375 2.234375q-0.34375 0.78125 -1.09375 1.203125q-0.75 0.421875 -1.765625 0.421875q-1.515625 0 -2.3125 -0.875q-0.796875 -0.875 -0.765625 -2.578125zm8.0625 -0.90625q0 -2.296875 1.28125 -3.40625q1.078125 -0.921875 2.609375 -0.921875q1.71875 0 2.796875 1.125q1.09375 1.109375 1.09375 3.09375q0 1.59375 -0.484375 2.515625q-0.484375 0.921875 -1.40625 1.4375q-0.90625 0.5 -2.0 0.5q-1.734375 0 -2.8125 -1.109375q-1.078125 -1.125 -1.078125 -3.234375zm1.453125 0q0 1.59375 0.6875 2.390625q0.703125 0.796875 1.75 0.796875q1.046875 0 1.734375 -0.796875q0.703125 -0.796875 0.703125 -2.4375q0 -1.53125 -0.703125 -2.328125q-0.6875 -0.796875 -1.734375 -0.796875q-1.046875 0 -1.75 0.796875q-0.6875 0.78125 -0.6875 2.375zm9.2734375 4.15625l-1.3125 0l0 -11.453125l1.40625 0l0 4.078125q0.890625 -1.109375 2.28125 -1.109375q0.765625 0 1.4375 0.3125q0.6875 0.296875 1.125 0.859375q0.453125 0.5625 0.703125 1.359375q0.25 0.78125 0.25 1.671875q0 2.140625 -1.0625 3.3125q-1.046875 1.15625 -2.53125 1.15625q-1.46875 0 -2.296875 -1.234375l0 1.046875zm-0.015625 -4.21875q0 1.5 0.40625 2.15625q0.65625 1.09375 1.796875 1.09375q0.921875 0 1.59375 -0.796875q0.671875 -0.8125 0.671875 -2.390625q0 -1.625 -0.65625 -2.390625q-0.640625 -0.78125 -1.546875 -0.78125q-0.921875 0 -1.59375 0.796875q-0.671875 0.796875 -0.671875 2.3125z" fill-rule="nonzero"/><path fill="#fc561f" d="m0 276.87045l151.68504 0l0 51.275604l-151.68504 0z" fill-rule="evenodd"/><path fill="#ffffff" d="m26.768303 308.36826l0 -11.453125l1.515625 0l0 10.09375l5.640625 0l0 1.359375l-7.15625 0zm8.7890625 -9.84375l0 -1.609375l1.40625 0l0 1.609375l-1.40625 0zm0 9.84375l0 -8.296875l1.40625 0l0 8.296875l-1.40625 0zm5.8515625 0l-3.15625 -8.296875l1.484375 0l1.78125 4.96875q0.296875 0.796875 0.53125 1.671875q0.1875 -0.65625 0.53125 -1.578125l1.84375 -5.0625l1.4375 0l-3.140625 8.296875l-1.3125 0zm11.375 -2.671875l1.453125 0.171875q-0.34375 1.28125 -1.28125 1.984375q-0.921875 0.703125 -2.359375 0.703125q-1.828125 0 -2.890625 -1.125q-1.0625 -1.125 -1.0625 -3.140625q0 -2.09375 1.078125 -3.25q1.078125 -1.15625 2.796875 -1.15625q1.65625 0 2.703125 1.140625q1.0625 1.125 1.0625 3.171875q0 0.125 0 0.375l-6.1875 0q0.078125 1.375 0.765625 2.109375q0.703125 0.71875 1.734375 0.71875q0.78125 0 1.328125 -0.40625q0.546875 -0.40625 0.859375 -1.296875zm-4.609375 -2.28125l4.625 0q-0.09375 -1.046875 -0.53125 -1.5625q-0.671875 -0.8125 -1.734375 -0.8125q-0.96875 0 -1.640625 0.65625q-0.65625 0.640625 -0.71875 1.71875zm11.9375 1.265625l1.4375 -0.125q0.09375 0.859375 0.46875 1.421875q0.375 0.546875 1.15625 0.890625q0.78125 0.328125 1.75 0.328125q0.875 0 1.53125 -0.25q0.671875 -0.265625 0.984375 -0.703125q0.328125 -0.453125 0.328125 -0.984375q0 -0.546875 -0.3125 -0.9375q-0.3125 -0.40625 -1.03125 -0.6875q-0.453125 -0.171875 -2.03125 -0.546875q-1.578125 -0.390625 -2.21875 -0.71875q-0.8125 -0.4375 -1.21875 -1.0625q-0.40625 -0.640625 -0.40625 -1.4375q0 -0.859375 0.484375 -1.609375q0.5 -0.765625 1.4375 -1.15625q0.953125 -0.390625 2.109375 -0.390625q1.28125 0 2.25 0.421875q0.96875 0.40625 1.484375 1.203125q0.53125 0.796875 0.578125 1.796875l-1.453125 0.109375q-0.125 -1.078125 -0.796875 -1.625q-0.671875 -0.5625 -2.0 -0.5625q-1.375 0 -2.0 0.5q-0.625 0.5 -0.625 1.21875q0 0.609375 0.4375 1.015625q0.4375 0.390625 2.28125 0.8125q1.859375 0.421875 2.546875 0.734375q1.0 0.453125 1.46875 1.171875q0.484375 0.703125 0.484375 1.625q0 0.90625 -0.53125 1.71875q-0.515625 0.8125 -1.5 1.265625q-0.984375 0.453125 -2.203125 0.453125q-1.5625 0 -2.609375 -0.453125q-1.046875 -0.46875 -1.65625 -1.375q-0.59375 -0.90625 -0.625 -2.0625zm16.6875 1.015625l1.453125 0.171875q-0.34375 1.28125 -1.28125 1.984375q-0.921875 0.703125 -2.359375 0.703125q-1.828125 0 -2.890625 -1.125q-1.0625 -1.125 -1.0625 -3.140625q0 -2.09375 1.078125 -3.25q1.078125 -1.15625 2.796875 -1.15625q1.65625 0 2.703125 1.140625q1.0625 1.125 1.0625 3.171875q0 0.125 0 0.375l-6.1875 0q0.078125 1.375 0.765625 2.109375q0.703125 0.71875 1.734375 0.71875q0.78125 0 1.328125 -0.40625q0.546875 -0.40625 0.859375 -1.296875zm-4.609375 -2.28125l4.625 0q-0.09375 -1.046875 -0.53125 -1.5625q-0.671875 -0.8125 -1.734375 -0.8125q-0.96875 0 -1.640625 0.65625q-0.65625 0.640625 -0.71875 1.71875zm7.8203125 4.953125l0 -8.296875l1.265625 0l0 1.25q0.484375 -0.875 0.890625 -1.15625q0.40625 -0.28125 0.90625 -0.28125q0.703125 0 1.4375 0.453125l-0.484375 1.296875q-0.515625 -0.296875 -1.03125 -0.296875q-0.453125 0 -0.828125 0.28125q-0.359375 0.265625 -0.515625 0.765625q-0.234375 0.75 -0.234375 1.640625l0 4.34375l-1.40625 0zm7.640625 0l-3.15625 -8.296875l1.484375 0l1.78125 4.96875q0.296875 0.796875 0.53125 1.671875q0.1875 -0.65625 0.53125 -1.578125l1.84375 -5.0625l1.4375 0l-3.140625 8.296875l-1.3125 0zm5.703125 -9.84375l0 -1.609375l1.40625 0l0 1.609375l-1.40625 0zm0 9.84375l0 -8.296875l1.40625 0l0 8.296875l-1.40625 0zm8.9609375 -3.046875l1.390625 0.1875q-0.234375 1.421875 -1.171875 2.234375q-0.921875 0.8125 -2.28125 0.8125q-1.703125 0 -2.75 -1.109375q-1.03125 -1.125 -1.03125 -3.203125q0 -1.34375 0.4375 -2.34375q0.453125 -1.015625 1.359375 -1.515625q0.921875 -0.5 1.984375 -0.5q1.359375 0 2.21875 0.6875q0.859375 0.671875 1.09375 1.9375l-1.359375 0.203125q-0.203125 -0.828125 -0.703125 -1.25q-0.484375 -0.421875 -1.1875 -0.421875q-1.0625 0 -1.734375 0.765625q-0.65625 0.75 -0.65625 2.40625q0 1.671875 0.640625 2.4375q0.640625 0.75 1.671875 0.75q0.828125 0 1.375 -0.5q0.5625 -0.515625 0.703125 -1.578125zm8.265625 0.375l1.453125 0.171875q-0.34375 1.28125 -1.28125 1.984375q-0.921875 0.703125 -2.359375 0.703125q-1.828125 0 -2.890625 -1.125q-1.0625 -1.125 -1.0625 -3.140625q0 -2.09375 1.078125 -3.25q1.078125 -1.15625 2.796875 -1.15625q1.65625 0 2.703125 1.140625q1.0625 1.125 1.0625 3.171875q0 0.125 0 0.375l-6.1875 0q0.078125 1.375 0.765625 2.109375q0.703125 0.71875 1.734375 0.71875q0.78125 0 1.328125 -0.40625q0.546875 -0.40625 0.859375 -1.296875zm-4.609375 -2.28125l4.625 0q-0.09375 -1.046875 -0.53125 -1.5625q-0.671875 -0.8125 -1.734375 -0.8125q-0.96875 0 -1.640625 0.65625q-0.65625 0.640625 -0.71875 1.71875zm11.890625 1.921875l1.40625 -0.1875q0.25 1.203125 0.828125 1.734375q0.578125 0.515625 1.421875 0.515625q0.984375 0 1.671875 -0.6875q0.6875 -0.6875 0.6875 -1.703125q0 -0.96875 -0.640625 -1.59375q-0.625 -0.625 -1.609375 -0.625q-0.390625 0 -0.984375 0.15625l0.15625 -1.234375q0.140625 0.015625 0.21875 0.015625q0.90625 0 1.625 -0.46875q0.71875 -0.46875 0.71875 -1.453125q0 -0.765625 -0.53125 -1.265625q-0.515625 -0.515625 -1.34375 -0.515625q-0.828125 0 -1.375 0.515625q-0.546875 0.515625 -0.703125 1.546875l-1.40625 -0.25q0.265625 -1.421875 1.171875 -2.1875q0.921875 -0.78125 2.28125 -0.78125q0.9375 0 1.71875 0.40625q0.796875 0.390625 1.203125 1.09375q0.421875 0.6875 0.421875 1.46875q0 0.75 -0.40625 1.359375q-0.390625 0.609375 -1.171875 0.96875q1.015625 0.234375 1.578125 0.96875q0.5625 0.734375 0.5625 1.84375q0 1.5 -1.09375 2.546875q-1.09375 1.046875 -2.765625 1.046875q-1.5 0 -2.5 -0.890625q-1.0 -0.90625 -1.140625 -2.34375z" fill-rule="nonzero"/><path fill="#fc561f" d="m174.38715 182.04199l0 0c0 -6.520157 24.0074 -11.805771 53.62204 -11.805771c29.614655 0 53.62204 5.285614 53.62204 11.805771l0 47.2231c0 6.5201416 -24.007385 11.805771 -53.62204 11.805771c-29.61464 0 -53.62204 -5.2856293 -53.62204 -11.805771z" fill-rule="evenodd"/><path fill="#000000" fill-opacity="0.0" d="m281.63123 182.04199l0 0c0 6.5201416 -24.007385 11.805771 -53.62204 11.805771c-29.61464 0 -53.62204 -5.2856293 -53.62204 -11.805771" fill-rule="evenodd"/><path fill="#000000" fill-opacity="0.0" d="m174.38715 182.04199l0 0c0 -6.520157 24.0074 -11.805771 53.62204 -11.805771c29.614655 0 53.62204 5.285614 53.62204 11.805771l0 47.2231c0 6.5201416 -24.007385 11.805771 -53.62204 11.805771c-29.61464 0 -53.62204 -5.2856293 -53.62204 -11.805771z" fill-rule="evenodd"/><path stroke="#ffffff" stroke-width="2.0" stroke-linejoin="round" stroke-linecap="butt" d="m281.63123 182.04199l0 0c0 6.5201416 -24.007385 11.805771 -53.62204 11.805771c-29.61464 0 -53.62204 -5.2856293 -53.62204 -11.805771" fill-rule="evenodd"/><path stroke="#ffffff" stroke-width="2.0" stroke-linejoin="round" stroke-linecap="butt" d="m174.38715 182.04199l0 0c0 -6.520157 24.0074 -11.805771 53.62204 -11.805771c29.614655 0 53.62204 5.285614 53.62204 11.805771l0 47.2231c0 6.5201416 -24.007385 11.805771 -53.62204 11.805771c-29.61464 0 -53.62204 -5.2856293 -53.62204 -11.805771z" fill-rule="evenodd"/><path fill="#ffffff" d="m194.99747 217.41643l0 -11.453125l3.953125 0q1.328125 0 2.03125 0.15625q0.984375 0.234375 1.6875 0.828125q0.90625 0.765625 1.34375 1.953125q0.453125 1.1875 0.453125 2.71875q0 1.3125 -0.3125 2.328125q-0.296875 1.0 -0.78125 1.65625q-0.46875 0.65625 -1.03125 1.046875q-0.5625 0.375 -1.375 0.578125q-0.796875 0.1875 -1.828125 0.1875l-4.140625 0zm1.515625 -1.359375l2.453125 0q1.125 0 1.765625 -0.203125q0.65625 -0.21875 1.03125 -0.59375q0.546875 -0.546875 0.84375 -1.453125q0.296875 -0.90625 0.296875 -2.203125q0 -1.796875 -0.59375 -2.765625q-0.578125 -0.96875 -1.421875 -1.296875q-0.609375 -0.234375 -1.96875 -0.234375l-2.40625 0l0 8.75zm15.2734375 0.328125q-0.78125 0.671875 -1.5 0.953125q-0.71875 0.265625 -1.546875 0.265625q-1.375 0 -2.109375 -0.671875q-0.734375 -0.671875 -0.734375 -1.703125q0 -0.609375 0.28125 -1.109375q0.28125 -0.515625 0.71875 -0.8125q0.453125 -0.3125 1.015625 -0.46875q0.421875 -0.109375 1.25 -0.203125q1.703125 -0.203125 2.515625 -0.484375q0 -0.296875 0 -0.375q0 -0.859375 -0.390625 -1.203125q-0.546875 -0.484375 -1.609375 -0.484375q-0.984375 0 -1.46875 0.359375q-0.46875 0.34375 -0.6875 1.21875l-1.375 -0.1875q0.1875 -0.875 0.609375 -1.421875q0.4375 -0.546875 1.25 -0.828125q0.8125 -0.296875 1.875 -0.296875q1.0625 0 1.71875 0.25q0.671875 0.25 0.984375 0.625q0.3125 0.375 0.4375 0.953125q0.078125 0.359375 0.078125 1.296875l0 1.875q0 1.96875 0.078125 2.484375q0.09375 0.515625 0.359375 1.0l-1.46875 0q-0.21875 -0.4375 -0.28125 -1.03125zm-0.109375 -3.140625q-0.765625 0.3125 -2.296875 0.53125q-0.875 0.125 -1.234375 0.28125q-0.359375 0.15625 -0.5625 0.46875q-0.1875 0.296875 -0.1875 0.65625q0 0.5625 0.421875 0.9375q0.4375 0.375 1.25 0.375q0.8125 0 1.4375 -0.34375q0.640625 -0.359375 0.9375 -0.984375q0.234375 -0.46875 0.234375 -1.40625l0 -0.515625zm6.6640625 2.90625l0.203125 1.25q-0.59375 0.125 -1.0625 0.125q-0.765625 0 -1.1875 -0.234375q-0.421875 -0.25 -0.59375 -0.640625q-0.171875 -0.40625 -0.171875 -1.671875l0 -4.765625l-1.03125 0l0 -1.09375l1.03125 0l0 -2.0625l1.40625 -0.84375l0 2.90625l1.40625 0l0 1.09375l-1.40625 0l0 4.84375q0 0.609375 0.0625 0.78125q0.078125 0.171875 0.25 0.28125q0.171875 0.09375 0.484375 0.09375q0.234375 0 0.609375 -0.0625zm6.7890625 0.234375q-0.78125 0.671875 -1.5 0.953125q-0.71875 0.265625 -1.546875 0.265625q-1.375 0 -2.109375 -0.671875q-0.734375 -0.671875 -0.734375 -1.703125q0 -0.609375 0.28125 -1.109375q0.28125 -0.515625 0.71875 -0.8125q0.453125 -0.3125 1.015625 -0.46875q0.421875 -0.109375 1.25 -0.203125q1.703125 -0.203125 2.515625 -0.484375q0 -0.296875 0 -0.375q0 -0.859375 -0.390625 -1.203125q-0.546875 -0.484375 -1.609375 -0.484375q-0.984375 0 -1.46875 0.359375q-0.46875 0.34375 -0.6875 1.21875l-1.375 -0.1875q0.1875 -0.875 0.609375 -1.421875q0.4375 -0.546875 1.25 -0.828125q0.8125 -0.296875 1.875 -0.296875q1.0625 0 1.71875 0.25q0.671875 0.25 0.984375 0.625q0.3125 0.375 0.4375 0.953125q0.078125 0.359375 0.078125 1.296875l0 1.875q0 1.96875 0.078125 2.484375q0.09375 0.515625 0.359375 1.0l-1.46875 0q-0.21875 -0.4375 -0.28125 -1.03125zm-0.109375 -3.140625q-0.765625 0.3125 -2.296875 0.53125q-0.875 0.125 -1.234375 0.28125q-0.359375 0.15625 -0.5625 0.46875q-0.1875 0.296875 -0.1875 0.65625q0 0.5625 0.421875 0.9375q0.4375 0.375 1.25 0.375q0.8125 0 1.4375 -0.34375q0.640625 -0.359375 0.9375 -0.984375q0.234375 -0.46875 0.234375 -1.40625l0 -0.515625zm4.8984375 4.171875l-1.3125 0l0 -11.453125l1.40625 0l0 4.078125q0.890625 -1.109375 2.28125 -1.109375q0.765625 0 1.4375 0.3125q0.6875 0.296875 1.125 0.859375q0.453125 0.5625 0.703125 1.359375q0.25 0.78125 0.25 1.671875q0 2.140625 -1.0625 3.3125q-1.046875 1.15625 -2.53125 1.15625q-1.46875 0 -2.296875 -1.234375l0 1.046875zm-0.015625 -4.21875q0 1.5 0.40625 2.15625q0.65625 1.09375 1.796875 1.09375q0.921875 0 1.59375 -0.796875q0.671875 -0.8125 0.671875 -2.390625q0 -1.625 -0.65625 -2.390625q-0.640625 -0.78125 -1.546875 -0.78125q-0.921875 0 -1.59375 0.796875q-0.671875 0.796875 -0.671875 2.3125zm13.0234375 3.1875q-0.78125 0.671875 -1.5 0.953125q-0.71875 0.265625 -1.546875 0.265625q-1.375 0 -2.109375 -0.671875q-0.734375 -0.671875 -0.734375 -1.703125q0 -0.609375 0.28125 -1.109375q0.28125 -0.515625 0.71875 -0.8125q0.453125 -0.3125 1.015625 -0.46875q0.421875 -0.109375 1.25 -0.203125q1.703125 -0.203125 2.515625 -0.484375q0 -0.296875 0 -0.375q0 -0.859375 -0.390625 -1.203125q-0.546875 -0.484375 -1.609375 -0.484375q-0.984375 0 -1.46875 0.359375q-0.46875 0.34375 -0.6875 1.21875l-1.375 -0.1875q0.1875 -0.875 0.609375 -1.421875q0.4375 -0.546875 1.25 -0.828125q0.8125 -0.296875 1.875 -0.296875q1.0625 0 1.71875 0.25q0.671875 0.25 0.984375 0.625q0.3125 0.375 0.4375 0.953125q0.078125 0.359375 0.078125 1.296875l0 1.875q0 1.96875 0.078125 2.484375q0.09375 0.515625 0.359375 1.0l-1.46875 0q-0.21875 -0.4375 -0.28125 -1.03125zm-0.109375 -3.140625q-0.765625 0.3125 -2.296875 0.53125q-0.875 0.125 -1.234375 0.28125q-0.359375 0.15625 -0.5625 0.46875q-0.1875 0.296875 -0.1875 0.65625q0 0.5625 0.421875 0.9375q0.4375 0.375 1.25 0.375q0.8125 0 1.4375 -0.34375q0.640625 -0.359375 0.9375 -0.984375q0.234375 -0.46875 0.234375 -1.40625l0 -0.515625zm3.0390625 1.6875l1.390625 -0.21875q0.109375 0.84375 0.640625 1.296875q0.546875 0.4375 1.5 0.4375q0.96875 0 1.4375 -0.390625q0.46875 -0.40625 0.46875 -0.9375q0 -0.46875 -0.40625 -0.75q-0.296875 -0.1875 -1.4375 -0.46875q-1.546875 -0.390625 -2.15625 -0.671875q-0.59375 -0.296875 -0.90625 -0.796875q-0.296875 -0.5 -0.296875 -1.109375q0 -0.5625 0.25 -1.03125q0.25 -0.46875 0.6875 -0.78125q0.328125 -0.25 0.890625 -0.40625q0.578125 -0.171875 1.21875 -0.171875q0.984375 0 1.71875 0.28125q0.734375 0.28125 1.078125 0.765625q0.359375 0.46875 0.5 1.28125l-1.375 0.1875q-0.09375 -0.640625 -0.546875 -1.0q-0.453125 -0.359375 -1.265625 -0.359375q-0.96875 0 -1.390625 0.328125q-0.40625 0.3125 -0.40625 0.734375q0 0.28125 0.171875 0.5q0.171875 0.21875 0.53125 0.375q0.21875 0.078125 1.25 0.359375q1.484375 0.390625 2.078125 0.65625q0.59375 0.25 0.921875 0.734375q0.34375 0.484375 0.34375 1.203125q0 0.703125 -0.421875 1.328125q-0.40625 0.609375 -1.1875 0.953125q-0.765625 0.34375 -1.734375 0.34375q-1.625 0 -2.46875 -0.671875q-0.84375 -0.671875 -1.078125 -2.0zm14.234375 -0.1875l1.453125 0.171875q-0.34375 1.28125 -1.28125 1.984375q-0.921875 0.703125 -2.359375 0.703125q-1.828125 0 -2.890625 -1.125q-1.0625 -1.125 -1.0625 -3.140625q0 -2.09375 1.078125 -3.25q1.078125 -1.15625 2.796875 -1.15625q1.65625 0 2.703125 1.140625q1.0625 1.125 1.0625 3.171875q0 0.125 0 0.375l-6.1875 0q0.078125 1.375 0.765625 2.109375q0.703125 0.71875 1.734375 0.71875q0.78125 0 1.328125 -0.40625q0.546875 -0.40625 0.859375 -1.296875zm-4.609375 -2.28125l4.625 0q-0.09375 -1.046875 -0.53125 -1.5625q-0.671875 -0.8125 -1.734375 -0.8125q-0.96875 0 -1.640625 0.65625q-0.65625 0.640625 -0.71875 1.71875z" fill-rule="nonzero"/><path fill="#000000" fill-opacity="0.0" d="m151.68504 205.91049l22.708664 -0.25196838" fill-rule="evenodd"/><path stroke="#fc561f" stroke-width="2.0" stroke-linejoin="round" stroke-linecap="butt" d="m151.68504 205.91049l15.854904 -0.17591858" fill-rule="evenodd"/><path fill="#fc561f" stroke="#fc561f" stroke-width="2.0" stroke-linecap="butt" d="m167.53995 205.73457l-2.2240753 2.2739868l6.1542053 -2.3175964l-6.204117 -2.1804657z" fill-rule="evenodd"/><path fill="#000000" fill-opacity="0.0" d="m151.68504 102.28943l193.76378 0" fill-rule="evenodd"/><path stroke="#0f69c9" stroke-width="2.0" stroke-linejoin="round" stroke-linecap="butt" d="m151.68504 102.28943l186.90962 0" fill-rule="evenodd"/><path fill="#0f69c9" stroke="#0f69c9" stroke-width="2.0" stroke-linecap="butt" d="m338.59464 102.28943l-2.2491455 2.2491684l6.179535 -2.2491684l-6.179535 -2.2491608z" fill-rule="evenodd"/><path fill="#0f69c9" d="m345.462 81.22073l77.31323 0l0 42.41214c-38.65454 0 -38.65454 16.318039 -77.31323 8.159027zm6.3696594 0l0 -5.498474l76.78519 0l0 42.678192c-2.9187317 0 -5.841614 0.29562378 -5.841614 0.29562378l0 -37.47534zm5.987152 -5.498474l0 -5.365448l77.45044 0l0 42.545174c-3.3262024 0 -6.652405 0.2217102 -6.652405 0.2217102l0 -37.401436z" fill-rule="evenodd"/><path fill="#000000" fill-opacity="0.0" d="m345.462 81.22073l77.31323 0l0 42.41214c-38.65454 0 -38.65454 16.318039 -77.31323 8.159027zm6.3696594 0l0 -5.498474l76.78519 0l0 42.678192c-2.9187317 0 -5.841614 0.29562378 -5.841614 0.29562378m-64.95642 -42.973816l0 -5.365448l77.45044 0l0 42.545174c-3.3262024 0 -6.652405 0.2217102 -6.652405 0.2217102" fill-rule="evenodd"/><path fill="#000000" fill-opacity="0.0" d="m345.462 131.7919c38.65869 8.159012 38.65869 -8.159027 77.31323 -8.159027l0 -4.936798c0 0 2.922882 -0.29562378 5.841614 -0.29562378l0 -5.2767563c0 0 3.3262024 -0.2217102 6.652405 -0.2217102l0 -42.545174l-77.45044 0l0 5.365448l-5.987152 0l0 5.498474l-6.3696594 0z" fill-rule="evenodd"/><path stroke="#ffffff" stroke-width="2.0" stroke-linejoin="round" stroke-linecap="butt" d="m345.462 81.22073l77.31323 0l0 42.41214c-38.65454 0 -38.65454 16.318039 -77.31323 8.159027zm6.3696594 0l0 -5.498474l76.78519 0l0 42.678192c-2.9187317 0 -5.841614 0.29562378 -5.841614 0.29562378m-64.95642 -42.973816l0 -5.365448l77.45044 0l0 42.545174c-3.3262024 0 -6.652405 0.2217102 -6.652405 0.2217102" fill-rule="evenodd"/><path fill="#ffffff" d="m360.92722 112.36631l0 -11.453125l8.28125 0l0 1.34375l-6.765625 0l0 3.515625l6.34375 0l0 1.34375l-6.34375 0l0 3.890625l7.03125 0l0 1.359375l-8.546875 0zm12.765625 0l-3.15625 -8.296875l1.484375 0l1.78125 4.96875q0.296875 0.796875 0.53125 1.671875q0.1875 -0.65625 0.53125 -1.578125l1.84375 -5.0625l1.4375 0l-3.140625 8.296875l-1.3125 0zm11.375 -2.671875l1.453125 0.171875q-0.34375 1.28125 -1.28125 1.984375q-0.921875 0.703125 -2.359375 0.703125q-1.828125 0 -2.890625 -1.125q-1.0625 -1.125 -1.0625 -3.140625q0 -2.09375 1.078125 -3.25q1.078125 -1.15625 2.796875 -1.15625q1.65625 0 2.703125 1.140625q1.0625 1.125 1.0625 3.171875q0 0.125 0 0.375l-6.1875 0q0.078125 1.375 0.765625 2.109375q0.703125 0.71875 1.734375 0.71875q0.78125 0 1.328125 -0.40625q0.546875 -0.40625 0.859375 -1.296875zm-4.609375 -2.28125l4.625 0q-0.09375 -1.046875 -0.53125 -1.5625q-0.671875 -0.8125 -1.734375 -0.8125q-0.96875 0 -1.640625 0.65625q-0.65625 0.640625 -0.71875 1.71875zm7.8359375 4.953125l0 -8.296875l1.265625 0l0 1.171875q0.90625 -1.359375 2.640625 -1.359375q0.75 0 1.375 0.265625q0.625 0.265625 0.9375 0.703125q0.3125 0.4375 0.4375 1.046875q0.078125 0.390625 0.078125 1.359375l0 5.109375l-1.40625 0l0 -5.046875q0 -0.859375 -0.171875 -1.28125q-0.15625 -0.4375 -0.578125 -0.6875q-0.40625 -0.25 -0.96875 -0.25q-0.90625 0 -1.5625 0.578125q-0.640625 0.5625 -0.640625 2.15625l0 4.53125l-1.40625 0zm11.9609375 -1.265625l0.203125 1.25q-0.59375 0.125 -1.0625 0.125q-0.765625 0 -1.1875 -0.234375q-0.421875 -0.25 -0.59375 -0.640625q-0.171875 -0.40625 -0.171875 -1.671875l0 -4.765625l-1.03125 0l0 -1.09375l1.03125 0l0 -2.0625l1.40625 -0.84375l0 2.90625l1.40625 0l0 1.09375l-1.40625 0l0 4.84375q0 0.609375 0.0625 0.78125q0.078125 0.171875 0.25 0.28125q0.171875 0.09375 0.484375 0.09375q0.234375 0 0.609375 -0.0625zm0.8203125 -1.21875l1.390625 -0.21875q0.109375 0.84375 0.640625 1.296875q0.546875 0.4375 1.5 0.4375q0.96875 0 1.4375 -0.390625q0.46875 -0.40625 0.46875 -0.9375q0 -0.46875 -0.40625 -0.75q-0.296875 -0.1875 -1.4375 -0.46875q-1.546875 -0.390625 -2.15625 -0.671875q-0.59375 -0.296875 -0.90625 -0.796875q-0.296875 -0.5 -0.296875 -1.109375q0 -0.5625 0.25 -1.03125q0.25 -0.46875 0.6875 -0.78125q0.328125 -0.25 0.890625 -0.40625q0.578125 -0.171875 1.21875 -0.171875q0.984375 0 1.71875 0.28125q0.734375 0.28125 1.078125 0.765625q0.359375 0.46875 0.5 1.28125l-1.375 0.1875q-0.09375 -0.640625 -0.546875 -1.0q-0.453125 -0.359375 -1.265625 -0.359375q-0.96875 0 -1.390625 0.328125q-0.40625 0.3125 -0.40625 0.734375q0 0.28125 0.171875 0.5q0.171875 0.21875 0.53125 0.375q0.21875 0.078125 1.25 0.359375q1.484375 0.390625 2.078125 0.65625q0.59375 0.25 0.921875 0.734375q0.34375 0.484375 0.34375 1.203125q0 0.703125 -0.421875 1.328125q-0.40625 0.609375 -1.1875 0.953125q-0.765625 0.34375 -1.734375 0.34375q-1.625 0 -2.46875 -0.671875q-0.84375 -0.671875 -1.078125 -2.0z" fill-rule="nonzero"/><path fill="#0f69c9" d="m369.39203 276.87045l51.08661 0l0 51.275604l-51.08661 0z" fill-rule="evenodd"/><path fill="#ffffff" d="m390.1033 305.3995l-4.765625 0l-1.078125 2.96875l-1.546875 0l4.34375 -11.375l1.3125 0l4.359375 11.375l-1.546875 0l-1.078125 -2.96875zm-4.3125 -1.234375l3.859375 0l-1.9375 -5.328125l-1.921875 5.328125zm9.96875 -0.25l0 4.453125l-1.5 0l0 -11.375l4.1875 0q1.875 0 2.921875 0.953125q1.0625 0.953125 1.0625 2.515625q0 1.65625 -1.03125 2.5625q-1.03125 0.890625 -2.96875 0.890625l-2.671875 0zm0 -1.234375l2.6875 0q1.203125 0 1.84375 -0.5625q0.640625 -0.5625 0.640625 -1.640625q0 -1.015625 -0.640625 -1.625q-0.640625 -0.609375 -1.75 -0.625l-2.78125 0l0 4.453125zm10.203125 5.6875l-1.5 0l0 -11.375l1.5 0l0 11.375z" fill-rule="nonzero"/><path fill="#000000" fill-opacity="0.0" d="m420.47864 302.50827l340.4724 -70.96063" fill-rule="evenodd"/><path stroke="#0f69c9" stroke-width="2.0" stroke-linejoin="round" stroke-linecap="butt" d="m420.47864 302.50827l333.7625 -69.562164" fill-rule="evenodd"/><path fill="#0f69c9" stroke="#0f69c9" stroke-width="2.0" stroke-linecap="butt" d="m754.24115 232.94612l-1.742981 2.6607513l5.590637 -3.462677l-6.508423 -0.9410248z" fill-rule="evenodd"/><path fill="#000000" fill-opacity="0.0" d="m435.26926 102.283424l325.66928 77.98426" fill-rule="evenodd"/><path stroke="#0f69c9" stroke-width="2.0" stroke-linejoin="round" stroke-linecap="butt" d="m435.26923 102.283424l319.0036 76.388084" fill-rule="evenodd"/><path fill="#0f69c9" stroke="#0f69c9" stroke-width="2.0" stroke-linecap="butt" d="m754.2728 178.67151l-2.7111206 1.663559l6.5334473 -0.74827576l-5.485901 -3.6263885z" fill-rule="evenodd"/><path fill="#000000" fill-opacity="0.0" d="m281.63123 205.65353l227.87402 0.25196838" fill-rule="evenodd"/><path stroke="#0f69c9" stroke-width="2.0" stroke-linejoin="round" stroke-linecap="butt" d="m281.63123 205.65355l221.01987 0.2443695" fill-rule="evenodd"/><path fill="#0f69c9" stroke="#0f69c9" stroke-width="2.0" stroke-linecap="butt" d="m502.6511 205.89793l-2.2516785 2.2466736l6.1820374 -2.2423248l-6.177063 -2.2559967z" fill-rule="evenodd"/><path fill="#000000" fill-opacity="0.0" d="m151.68504 302.50827l217.70079 0" fill-rule="evenodd"/><path stroke="#0f69c9" stroke-width="2.0" stroke-linejoin="round" stroke-linecap="butt" d="m151.68504 302.50827l217.70079 0" fill-rule="evenodd"/><path fill="#000000" fill-opacity="0.0" d="m338.063 363.57217l234.6142 0l0 44.724426l-234.6142 0z" fill-rule="evenodd"/><path fill="#0f69c9" d="m358.3068 394.41406q-1.421875 -3.125 -1.421875 -6.4375q0 -2.203125 0.578125 -4.09375q0.578125 -1.90625 1.765625 -3.765625q0.78125 -1.234375 2.5 -3.203125l1.28125 0q-1.0625 1.140625 -2.25 3.203125q-1.1875 2.0625 -1.734375 4.0625q-0.53125 2.0 -0.53125 4.0q0 3.015625 1.046875 6.234375l-1.234375 0zm6.915802 -17.28125l1.78125 0l-1.71875 8.21875q-0.203125 1.015625 -0.203125 1.5q0 1.078125 0.84375 1.734375q0.84375 0.65625 2.140625 0.65625q1.015625 0 1.890625 -0.46875q0.875 -0.46875 1.390625 -1.375q0.515625 -0.921875 0.921875 -2.90625l1.53125 -7.359375l1.796875 0l-1.640625 7.84375q-0.40625 2.0 -1.09375 3.171875q-0.6875 1.171875 -1.90625 1.875q-1.203125 0.703125 -2.8125 0.703125q-1.5 0 -2.609375 -0.5q-1.109375 -0.5 -1.671875 -1.375q-0.546875 -0.890625 -0.546875 -2.015625q0 -0.703125 0.375 -2.40625l1.53125 -7.296875zm10.394836 13.359375l2.015625 -9.671875l1.5 0l-0.359375 1.6875q0.96875 -1.0 1.8125 -1.453125q0.859375 -0.453125 1.734375 -0.453125q1.1875 0 1.84375 0.640625q0.671875 0.625 0.671875 1.703125q0 0.53125 -0.234375 1.6875l-1.234375 5.859375l-1.640625 0l1.28125 -6.125q0.1875 -0.890625 0.1875 -1.328125q0 -0.484375 -0.328125 -0.78125q-0.328125 -0.296875 -0.953125 -0.296875q-1.28125 0 -2.265625 0.90625q-0.984375 0.90625 -1.453125 3.125l-0.9375 4.5l-1.640625 0zm16.891327 -1.40625q-1.40625 1.625 -2.953125 1.625q-1.375 0 -2.296875 -1.015625q-0.90625 -1.015625 -0.90625 -2.953125q0 -1.765625 0.71875 -3.21875q0.734375 -1.46875 1.8125 -2.1875q1.09375 -0.734375 2.1875 -0.734375q1.796875 0 2.71875 1.734375l1.09375 -5.203125l1.640625 0l-2.78125 13.359375l-1.53125 0l0.296875 -1.40625zm-4.515625 -2.640625q0 1.0 0.203125 1.59375q0.203125 0.578125 0.671875 0.96875q0.484375 0.375 1.171875 0.375q1.109375 0 2.03125 -1.15625q1.21875 -1.546875 1.21875 -3.828125q0 -1.140625 -0.609375 -1.78125q-0.59375 -0.65625 -1.515625 -0.65625q-0.59375 0 -1.078125 0.265625q-0.484375 0.265625 -0.96875 0.90625q-0.46875 0.625 -0.796875 1.59375q-0.328125 0.96875 -0.328125 1.71875zm15.469482 0.765625l1.609375 0.15625q-0.34375 1.1875 -1.59375 2.265625q-1.234375 1.078125 -2.96875 1.078125q-1.0625 0 -1.96875 -0.5q-0.890625 -0.5 -1.359375 -1.4375q-0.46875 -0.953125 -0.46875 -2.15625q0 -1.59375 0.734375 -3.078125q0.734375 -1.484375 1.890625 -2.203125q1.171875 -0.734375 2.53125 -0.734375q1.734375 0 2.765625 1.078125q1.03125 1.0625 1.03125 2.921875q0 0.71875 -0.125 1.46875l-7.125 0q-0.046875 0.28125 -0.046875 0.5q0 1.359375 0.625 2.078125q0.625 0.71875 1.53125 0.71875q0.84375 0 1.65625 -0.546875q0.828125 -0.5625 1.28125 -1.609375zm-4.78125 -2.40625l5.421875 0q0.015625 -0.25 0.015625 -0.359375q0 -1.234375 -0.625 -1.890625q-0.625 -0.671875 -1.59375 -0.671875q-1.0625 0 -1.9375 0.734375q-0.859375 0.71875 -1.28125 2.1875zm8.219452 2.375l1.640625 -0.09375q0 0.703125 0.21875 1.21875q0.21875 0.5 0.796875 0.8125q0.59375 0.3125 1.375 0.3125q1.09375 0 1.640625 -0.4375q0.546875 -0.4375 0.546875 -1.015625q0 -0.4375 -0.328125 -0.8125q-0.328125 -0.390625 -1.640625 -0.953125q-1.3125 -0.5625 -1.671875 -0.78125q-0.609375 -0.375 -0.921875 -0.875q-0.3125 -0.515625 -0.3125 -1.171875q0 -1.140625 0.90625 -1.953125q0.921875 -0.828125 2.5625 -0.828125q1.828125 0 2.765625 0.84375q0.953125 0.84375 1.0 2.21875l-1.609375 0.109375q-0.046875 -0.875 -0.625 -1.390625q-0.578125 -0.515625 -1.65625 -0.515625q-0.84375 0 -1.328125 0.40625q-0.46875 0.390625 -0.46875 0.84375q0 0.453125 0.40625 0.796875q0.28125 0.234375 1.421875 0.734375q1.890625 0.8125 2.375 1.28125q0.78125 0.765625 0.78125 1.84375q0 0.71875 -0.4375 1.421875q-0.4375 0.6875 -1.34375 1.109375q-0.90625 0.40625 -2.140625 0.40625q-1.671875 0 -2.84375 -0.828125q-1.1875 -0.828125 -1.109375 -2.703125zm11.5 -8.171875l0.40625 -1.875l1.625 0l-0.390625 1.875l-1.640625 0zm-2.390625 11.484375l2.015625 -9.671875l1.65625 0l-2.03125 9.671875l-1.640625 0zm4.2073364 0l2.015625 -9.671875l1.453125 0l-0.40625 1.96875q0.75 -1.109375 1.453125 -1.640625q0.71875 -0.546875 1.46875 -0.546875q0.5 0 1.21875 0.359375l-0.671875 1.53125q-0.4375 -0.3125 -0.9375 -0.3125q-0.875 0 -1.78125 0.96875q-0.90625 0.953125 -1.4375 3.46875l-0.8125 3.875l-1.5625 0zm12.728302 -1.203125q-0.859375 0.734375 -1.65625 1.078125q-0.78125 0.34375 -1.6875 0.34375q-1.34375 0 -2.171875 -0.78125q-0.8125 -0.796875 -0.8125 -2.03125q0 -0.796875 0.375 -1.421875q0.375 -0.625 0.984375 -1.0q0.609375 -0.390625 1.484375 -0.546875q0.5625 -0.109375 2.109375 -0.171875q1.5625 -0.0625 2.234375 -0.328125q0.1875 -0.671875 0.1875 -1.125q0 -0.578125 -0.421875 -0.90625q-0.5625 -0.453125 -1.671875 -0.453125q-1.03125 0 -1.703125 0.46875q-0.65625 0.453125 -0.953125 1.296875l-1.671875 -0.140625q0.515625 -1.4375 1.609375 -2.203125q1.109375 -0.765625 2.796875 -0.765625q1.796875 0 2.84375 0.859375q0.796875 0.625 0.796875 1.65625q0 0.765625 -0.21875 1.796875l-0.53125 2.40625q-0.265625 1.140625 -0.265625 1.859375q0 0.453125 0.203125 1.3125l-1.671875 0q-0.125 -0.46875 -0.1875 -1.203125zm0.609375 -3.703125q-0.34375 0.140625 -0.75 0.21875q-0.390625 0.0625 -1.3125 0.15625q-1.4375 0.125 -2.03125 0.328125q-0.59375 0.1875 -0.90625 0.625q-0.296875 0.421875 -0.296875 0.9375q0 0.6875 0.484375 1.140625q0.484375 0.4375 1.359375 0.4375q0.828125 0 1.578125 -0.421875q0.75 -0.4375 1.1875 -1.203125q0.4375 -0.78125 0.6875 -2.21875zm3.250702 4.90625l2.78125 -13.359375l1.65625 0l-1.0 4.78125q0.78125 -0.71875 1.421875 -1.015625q0.640625 -0.296875 1.328125 -0.296875q1.359375 0 2.265625 1.015625q0.90625 1.0 0.90625 2.9375q0 1.28125 -0.375 2.359375q-0.359375 1.0625 -0.890625 1.78125q-0.53125 0.71875 -1.109375 1.15625q-0.578125 0.4375 -1.1875 0.640625q-0.59375 0.21875 -1.140625 0.21875q-0.96875 0 -1.703125 -0.5q-0.71875 -0.515625 -1.125 -1.546875l-0.390625 1.828125l-1.4375 0zm2.4375 -3.96875l-0.015625 0.3125q0 1.234375 0.59375 1.890625q0.59375 0.640625 1.484375 0.640625q0.859375 0 1.578125 -0.609375q0.734375 -0.609375 1.1875 -1.890625q0.46875 -1.28125 0.46875 -2.375q0 -1.21875 -0.59375 -1.890625q-0.578125 -0.671875 -1.4375 -0.671875q-0.90625 0 -1.65625 0.6875q-0.734375 0.6875 -1.234375 2.125q-0.375 1.0625 -0.375 1.78125zm7.7976074 3.96875l2.796875 -13.359375l1.640625 0l-2.78125 13.359375l-1.65625 0zm11.379181 -3.28125l1.609375 0.15625q-0.34375 1.1875 -1.59375 2.265625q-1.234375 1.078125 -2.96875 1.078125q-1.0625 0 -1.96875 -0.5q-0.890625 -0.5 -1.359375 -1.4375q-0.46875 -0.953125 -0.46875 -2.15625q0 -1.59375 0.734375 -3.078125q0.734375 -1.484375 1.890625 -2.203125q1.171875 -0.734375 2.53125 -0.734375q1.734375 0 2.765625 1.078125q1.03125 1.0625 1.03125 2.921875q0 0.71875 -0.125 1.46875l-7.125 0q-0.046875 0.28125 -0.046875 0.5q0 1.359375 0.625 2.078125q0.625 0.71875 1.53125 0.71875q0.84375 0 1.65625 -0.546875q0.828125 -0.5625 1.28125 -1.609375zm-4.78125 -2.40625l5.421875 0q0.015625 -0.25 0.015625 -0.359375q0 -1.234375 -0.625 -1.890625q-0.625 -0.671875 -1.59375 -0.671875q-1.0625 0 -1.9375 0.734375q-0.859375 0.71875 -1.28125 2.1875zm13.934021 1.375l1.75 -0.171875l-0.015625 0.46875q0 0.765625 0.34375 1.421875q0.359375 0.640625 1.171875 1.0q0.828125 0.34375 1.953125 0.34375q1.609375 0 2.453125 -0.703125q0.84375 -0.703125 0.84375 -1.609375q0 -0.625 -0.453125 -1.140625q-0.453125 -0.515625 -2.484375 -1.390625q-1.578125 -0.6875 -2.140625 -1.046875q-0.90625 -0.59375 -1.34375 -1.28125q-0.421875 -0.703125 -0.421875 -1.59375q0 -1.03125 0.5625 -1.859375q0.5625 -0.828125 1.65625 -1.265625q1.09375 -0.4375 2.453125 -0.4375q1.640625 0 2.75 0.546875q1.125 0.546875 1.625 1.453125q0.515625 0.90625 0.515625 1.734375q0 0.09375 -0.015625 0.28125l-1.71875 0.140625q0 -0.578125 -0.109375 -0.890625q-0.171875 -0.5625 -0.5625 -0.9375q-0.375 -0.390625 -1.046875 -0.609375q-0.671875 -0.234375 -1.5 -0.234375q-1.453125 0 -2.265625 0.65625q-0.625 0.5 -0.625 1.328125q0 0.484375 0.25 0.875q0.265625 0.390625 0.921875 0.765625q0.484375 0.265625 2.25 1.046875q1.453125 0.640625 2.0 1.0q0.71875 0.484375 1.109375 1.171875q0.390625 0.6875 0.390625 1.5625q0 1.078125 -0.65625 2.0q-0.65625 0.90625 -1.828125 1.421875q-1.15625 0.5 -2.671875 0.5q-2.265625 0 -3.703125 -0.984375q-1.421875 -1.0 -1.4375 -3.5625zm18.427948 0.78125l1.65625 0.171875q-0.625 1.8125 -1.765625 2.703125q-1.140625 0.875 -2.609375 0.875q-1.578125 0 -2.5625 -1.015625q-0.96875 -1.03125 -0.96875 -2.859375q0 -1.578125 0.625 -3.109375q0.640625 -1.53125 1.796875 -2.328125q1.171875 -0.796875 2.6875 -0.796875q1.546875 0 2.453125 0.875q0.921875 0.875 0.921875 2.328125l-1.625 0.109375q-0.015625 -0.921875 -0.546875 -1.4375q-0.515625 -0.515625 -1.359375 -0.515625q-1.0 0 -1.734375 0.625q-0.71875 0.625 -1.140625 1.90625q-0.40625 1.28125 -0.40625 2.46875q0 1.234375 0.546875 1.859375q0.546875 0.609375 1.34375 0.609375q0.796875 0 1.53125 -0.609375q0.734375 -0.609375 1.15625 -1.859375zm9.75 0.25l1.609375 0.15625q-0.34375 1.1875 -1.59375 2.265625q-1.234375 1.078125 -2.96875 1.078125q-1.0625 0 -1.96875 -0.5q-0.890625 -0.5 -1.359375 -1.4375q-0.46875 -0.953125 -0.46875 -2.15625q0 -1.59375 0.734375 -3.078125q0.734375 -1.484375 1.890625 -2.203125q1.171875 -0.734375 2.53125 -0.734375q1.734375 0 2.765625 1.078125q1.03125 1.0625 1.03125 2.921875q0 0.71875 -0.125 1.46875l-7.125 0q-0.046875 0.28125 -0.046875 0.5q0 1.359375 0.625 2.078125q0.625 0.71875 1.53125 0.71875q0.84375 0 1.65625 -0.546875q0.828125 -0.5625 1.28125 -1.609375zm-4.78125 -2.40625l5.421875 0q0.015625 -0.25 0.015625 -0.359375q0 -1.234375 -0.625 -1.890625q-0.625 -0.671875 -1.59375 -0.671875q-1.0625 0 -1.9375 0.734375q-0.859375 0.71875 -1.28125 2.1875zm8.063232 5.6875l2.015625 -9.671875l1.5 0l-0.359375 1.6875q0.96875 -1.0 1.8125 -1.453125q0.859375 -0.453125 1.734375 -0.453125q1.1875 0 1.84375 0.640625q0.671875 0.625 0.671875 1.703125q0 0.53125 -0.234375 1.6875l-1.234375 5.859375l-1.640625 0l1.28125 -6.125q0.1875 -0.890625 0.1875 -1.328125q0 -0.484375 -0.328125 -0.78125q-0.328125 -0.296875 -0.953125 -0.296875q-1.28125 0 -2.265625 0.90625q-0.984375 0.90625 -1.453125 3.125l-0.9375 4.5l-1.640625 0zm16.891357 -1.203125q-0.859375 0.734375 -1.65625 1.078125q-0.78125 0.34375 -1.6875 0.34375q-1.3437805 0 -2.1719055 -0.78125q-0.8125 -0.796875 -0.8125 -2.03125q0 -0.796875 0.375 -1.421875q0.375 -0.625 0.984375 -1.0q0.609375 -0.390625 1.4844055 -0.546875q0.5625 -0.109375 2.109375 -0.171875q1.5625 -0.0625 2.234375 -0.328125q0.1875 -0.671875 0.1875 -1.125q0 -0.578125 -0.421875 -0.90625q-0.5625 -0.453125 -1.671875 -0.453125q-1.03125 0 -1.703125 0.46875q-0.65625 0.453125 -0.953125 1.296875l-1.6719055 -0.140625q0.515625 -1.4375 1.6094055 -2.203125q1.109375 -0.765625 2.796875 -0.765625q1.796875 0 2.84375 0.859375q0.796875 0.625 0.796875 1.65625q0 0.765625 -0.21875 1.796875l-0.53125 2.40625q-0.265625 1.140625 -0.265625 1.859375q0 0.453125 0.203125 1.3125l-1.671875 0q-0.125 -0.46875 -0.1875 -1.203125zm0.609375 -3.703125q-0.34375 0.140625 -0.75 0.21875q-0.390625 0.0625 -1.3125 0.15625q-1.4375 0.125 -2.03125 0.328125q-0.5937805 0.1875 -0.9062805 0.625q-0.296875 0.421875 -0.296875 0.9375q0 0.6875 0.484375 1.140625q0.48440552 0.4375 1.3594055 0.4375q0.828125 0 1.578125 -0.421875q0.75 -0.4375 1.1875 -1.203125q0.4375 -0.78125 0.6875 -2.21875zm3.2507324 4.90625l2.015625 -9.671875l1.453125 0l-0.40625 1.96875q0.75 -1.109375 1.453125 -1.640625q0.71875 -0.546875 1.46875 -0.546875q0.5 0 1.21875 0.359375l-0.671875 1.53125q-0.4375 -0.3125 -0.9375 -0.3125q-0.875 0 -1.78125 0.96875q-0.90625 0.953125 -1.4375 3.46875l-0.8125 3.875l-1.5625 0zm8.5407715 -11.484375l0.40625 -1.875l1.625 0l-0.390625 1.875l-1.640625 0zm-2.390625 11.484375l2.015625 -9.671875l1.65625 0l-2.03125 9.671875l-1.640625 0zm4.4885864 -3.671875q0 -2.828125 1.671875 -4.6875q1.375 -1.53125 3.609375 -1.53125q1.75 0 2.8125 1.09375q1.078125 1.09375 1.078125 2.953125q0 1.65625 -0.671875 3.09375q-0.671875 1.4375 -1.921875 2.203125q-1.25 0.765625 -2.625 0.765625q-1.125 0 -2.046875 -0.484375q-0.921875 -0.484375 -1.421875 -1.359375q-0.484375 -0.890625 -0.484375 -2.046875zm1.65625 -0.15625q0 1.359375 0.65625 2.0625q0.65625 0.703125 1.65625 0.703125q0.53125 0 1.046875 -0.203125q0.53125 -0.21875 0.96875 -0.65625q0.453125 -0.4375 0.765625 -1.0q0.3125 -0.5625 0.5 -1.203125q0.28125 -0.90625 0.28125 -1.734375q0 -1.3125 -0.65625 -2.03125q-0.65625 -0.734375 -1.65625 -0.734375q-0.78125 0 -1.421875 0.375q-0.625 0.375 -1.140625 1.09375q-0.515625 0.703125 -0.765625 1.640625q-0.234375 0.9375 -0.234375 1.6875zm8.594482 0.515625l1.640625 -0.09375q0 0.703125 0.21875 1.21875q0.21875 0.5 0.796875 0.8125q0.59375 0.3125 1.375 0.3125q1.09375 0 1.640625 -0.4375q0.546875 -0.4375 0.546875 -1.015625q0 -0.4375 -0.328125 -0.8125q-0.328125 -0.390625 -1.640625 -0.953125q-1.3125 -0.5625 -1.671875 -0.78125q-0.609375 -0.375 -0.921875 -0.875q-0.3125 -0.515625 -0.3125 -1.171875q0 -1.140625 0.90625 -1.953125q0.921875 -0.828125 2.5625 -0.828125q1.828125 0 2.765625 0.84375q0.953125 0.84375 1.0 2.21875l-1.609375 0.109375q-0.046875 -0.875 -0.625 -1.390625q-0.578125 -0.515625 -1.65625 -0.515625q-0.84375 0 -1.328125 0.40625q-0.46875 0.390625 -0.46875 0.84375q0 0.453125 0.40625 0.796875q0.28125 0.234375 1.421875 0.734375q1.890625 0.8125 2.375 1.28125q0.78125 0.765625 0.78125 1.84375q0 0.71875 -0.4375 1.421875q-0.4375 0.6875 -1.34375 1.109375q-0.90625 0.40625 -2.140625 0.40625q-1.671875 0 -2.84375 -0.828125q-1.1875 -0.828125 -1.109375 -2.703125zm12.25 -10.265625q1.4375 3.125 1.4375 6.421875q0 2.21875 -0.578125 4.125q-0.578125 1.890625 -1.765625 3.75q-0.796875 1.234375 -2.5 3.203125l-1.296875 0q1.0625 -1.140625 2.25 -3.21875q1.203125 -2.0625 1.734375 -4.046875q0.53125 -2.0 0.53125 -4.015625q0 -3.0 -1.046875 -6.21875l1.234375 0z" fill-rule="nonzero"/><path fill="#000000" fill-opacity="0.0" d="m303.97943 20.517162l0 335.0551" fill-rule="evenodd"/><path stroke="#0f69c9" stroke-width="2.0" stroke-linejoin="round" stroke-linecap="butt" stroke-dasharray="8.0,6.0" d="m303.97943 20.517162l0 335.0551" fill-rule="evenodd"/><path fill="#000000" fill-opacity="0.0" d="m54.2152 11.091864l171.1811 0l0 44.72441l-171.1811 0z" fill-rule="evenodd"/><path fill="#0f69c9" d="m86.20007 38.01186l2.78125 -13.359373l4.03125 0q1.453125 0 2.21875 0.21875q1.09375 0.28125 1.859375 1.0q0.78125 0.71875 1.171875 1.8125q0.390625 1.078125 0.390625 2.4375q0 1.609375 -0.484375 2.937498q-0.484375 1.3125 -1.28125 2.328125q-0.78125 1.0 -1.640625 1.578125q-0.859375 0.5625 -2.046875 0.84375q-0.890625 0.203125 -2.1875 0.203125l-4.8125 0zm2.109375 -1.515625l2.109375 0q1.4375 0 2.546875 -0.265625q0.6875 -0.15625 1.171875 -0.484375q0.65625 -0.40625 1.1875 -1.078125q0.6875 -0.890625 1.09375 -2.03125q0.421875 -1.1406231 0.421875 -2.609373q0 -1.609375 -0.5625 -2.484375q-0.5625 -0.875 -1.4375 -1.15625q-0.65625 -0.203125 -2.015625 -0.203125l-2.359375 0l-2.15625 10.312498zm17.676071 0.3125q-0.859375 0.734375 -1.65625 1.078125q-0.78125 0.34375 -1.6875 0.34375q-1.34375 0 -2.171875 -0.78125q-0.8125 -0.796875 -0.8125 -2.03125q0 -0.796875 0.375 -1.421875q0.375 -0.625 0.984375 -1.0q0.609375 -0.390625 1.484375 -0.546875q0.5625 -0.109375 2.109375 -0.171875q1.5625 -0.0625 2.234375 -0.3281231q0.1875 -0.671875 0.1875 -1.125q0 -0.578125 -0.421875 -0.90625q-0.5625 -0.453125 -1.671875 -0.453125q-1.03125 0 -1.703125 0.46875q-0.65625 0.453125 -0.953125 1.296875l-1.671875 -0.140625q0.515625 -1.4375 1.609375 -2.203125q1.109375 -0.765625 2.796875 -0.765625q1.796875 0 2.84375 0.859375q0.796875 0.625 0.796875 1.65625q0 0.765625 -0.21875 1.7968731l-0.53125 2.40625q-0.265625 1.140625 -0.265625 1.859375q0 0.453125 0.203125 1.3125l-1.671875 0q-0.125 -0.46875 -0.1875 -1.203125zm0.609375 -3.703125q-0.34375 0.140625 -0.75 0.21875q-0.390625 0.0625 -1.3125 0.15625q-1.4375 0.125 -2.03125 0.328125q-0.59375 0.1875 -0.90625 0.625q-0.296875 0.421875 -0.296875 0.9375q0 0.6875 0.484375 1.140625q0.484375 0.4375 1.359375 0.4375q0.828125 0 1.578125 -0.421875q0.75 -0.4375 1.1875 -1.203125q0.4375 -0.78125 0.6875 -2.21875zm7.094467 3.5625l-0.265625 1.359375q-0.59375 0.140625 -1.15625 0.140625q-0.984375 0 -1.5625 -0.46875q-0.4375 -0.375 -0.4375 -1.0q0 -0.3125 0.234375 -1.46875l1.171875 -5.624998l-1.296875 0l0.265625 -1.265625l1.296875 0l0.5 -2.375l1.890625 -1.140625l-0.734375 3.515625l1.625 0l-0.28125 1.265625l-1.609375 0l-1.125 5.359373q-0.203125 1.015625 -0.203125 1.21875q0 0.28125 0.15625 0.4375q0.171875 0.15625 0.5625 0.15625q0.546875 0 0.96875 -0.109375zm7.855179 0.140625q-0.859375 0.734375 -1.65625 1.078125q-0.78125 0.34375 -1.6875 0.34375q-1.34375 0 -2.171875 -0.78125q-0.8125 -0.796875 -0.8125 -2.03125q0 -0.796875 0.375 -1.421875q0.375 -0.625 0.984375 -1.0q0.609375 -0.390625 1.484375 -0.546875q0.5625 -0.109375 2.109375 -0.171875q1.5625 -0.0625 2.234375 -0.3281231q0.1875 -0.671875 0.1875 -1.125q0 -0.578125 -0.421875 -0.90625q-0.5625 -0.453125 -1.671875 -0.453125q-1.03125 0 -1.703125 0.46875q-0.65625 0.453125 -0.953125 1.296875l-1.671875 -0.140625q0.515625 -1.4375 1.609375 -2.203125q1.109375 -0.765625 2.796875 -0.765625q1.796875 0 2.84375 0.859375q0.796875 0.625 0.796875 1.65625q0 0.765625 -0.21875 1.7968731l-0.53125 2.40625q-0.265625 1.140625 -0.265625 1.859375q0 0.453125 0.203125 1.3125l-1.671875 0q-0.125 -0.46875 -0.1875 -1.203125zm0.609375 -3.703125q-0.34375 0.140625 -0.75 0.21875q-0.390625 0.0625 -1.3125 0.15625q-1.4375 0.125 -2.03125 0.328125q-0.59375 0.1875 -0.90625 0.625q-0.296875 0.421875 -0.296875 0.9375q0 0.6875 0.484375 1.140625q0.484375 0.4375 1.359375 0.4375q0.828125 0 1.578125 -0.421875q0.75 -0.4375 1.1875 -1.203125q0.4375 -0.78125 0.6875 -2.21875zm9.512146 -0.6875q0 -3.578123 2.0625 -5.781248q2.0625 -2.203125 5.0 -2.203125q2.5 0 4.0625 1.625q1.578125 1.625 1.578125 4.359375q0 1.9531231 -0.78125 3.609373q-0.59375 1.25 -1.5 2.15625q-0.90625 0.90625 -1.9375 1.40625q-1.359375 0.65625 -2.890625 0.65625q-1.609375 0 -2.921875 -0.765625q-1.3125 -0.765625 -2.0 -2.140625q-0.671875 -1.375 -0.671875 -2.921875zm1.765625 0.09375q0 1.171875 0.484375 2.15625q0.484375 0.984375 1.453125 1.546875q0.96875 0.546875 2.03125 0.546875q1.03125 0 1.953125 -0.484375q0.9375 -0.484375 1.65625 -1.359375q0.734375 -0.875 1.15625 -2.140625q0.4375 -1.2656231 0.4375 -2.499998q0 -2.0 -1.125 -3.171875q-1.109375 -1.1875 -2.75 -1.1875q-2.09375 0 -3.703125 1.796875q-1.59375 1.78125 -1.59375 4.796873zm13.495804 5.5l-1.0 -9.671873l1.578125 0l0.4375 4.343748l0.171875 2.4375q0.015625 0.28125 0.0625 1.109375q0.265625 -0.9375 0.453125 -1.421875q0.203125 -0.5 0.609375 -1.421875l2.3125 -5.046873l1.796875 0l0.3125 4.828123q0.078125 1.109375 0.09375 2.953125q0.453125 -1.21875 1.484375 -3.390625l2.078125 -4.390623l1.65625 0l-4.734375 9.671873l-1.71875 0l-0.359375 -5.671875q-0.03125 -0.5312481 -0.046875 -2.062498q-0.375 0.96875 -0.890625 2.109373l-2.5625 5.625l-1.734375 0zm11.644821 0l2.015625 -9.671873l1.5 0l-0.359375 1.6875q0.96875 -1.0 1.8125 -1.453125q0.859375 -0.453125 1.734375 -0.453125q1.1875 0 1.84375 0.640625q0.671875 0.625 0.671875 1.703125q0 0.53125 -0.234375 1.6874981l-1.234375 5.859375l-1.640625 0l1.28125 -6.124998q0.1875 -0.890625 0.1875 -1.328125q0 -0.484375 -0.328125 -0.78125q-0.328125 -0.296875 -0.953125 -0.296875q-1.28125 0 -2.265625 0.90625q-0.984375 0.90625 -1.453125 3.124998l-0.9375 4.5l-1.640625 0zm17.469467 -3.28125l1.609375 0.15625q-0.34375 1.1875 -1.59375 2.265625q-1.234375 1.078125 -2.96875 1.078125q-1.0625 0 -1.96875 -0.5q-0.890625 -0.5 -1.359375 -1.4375q-0.46875 -0.953125 -0.46875 -2.15625q0 -1.59375 0.734375 -3.078123q0.734375 -1.484375 1.890625 -2.203125q1.171875 -0.734375 2.53125 -0.734375q1.734375 0 2.765625 1.078125q1.03125 1.0625 1.03125 2.921873q0 0.71875 -0.125 1.46875l-7.125 0q-0.046875 0.28125 -0.046875 0.5q0 1.359375 0.625 2.078125q0.625 0.71875 1.53125 0.71875q0.84375 0 1.65625 -0.546875q0.828125 -0.5625 1.28125 -1.609375zm-4.78125 -2.40625l5.421875 0q0.015625 -0.25 0.015625 -0.3593731q0 -1.234375 -0.625 -1.890625q-0.625 -0.671875 -1.59375 -0.671875q-1.0625 0 -1.9375 0.734375q-0.859375 0.71875 -1.28125 2.187498zm8.063217 5.6875l2.015625 -9.671873l1.453125 0l-0.40625 1.96875q0.75 -1.109375 1.453125 -1.640625q0.71875 -0.546875 1.46875 -0.546875q0.5 0 1.21875 0.359375l-0.671875 1.53125q-0.4375 -0.3125 -0.9375 -0.3125q-0.875 0 -1.78125 0.96875q-0.90625 0.953125 -1.4375 3.468748l-0.8125 3.875l-1.5625 0zm6.368927 -3.3125l1.640625 -0.09375q0 0.703125 0.21875 1.21875q0.21875 0.5 0.796875 0.8125q0.59375 0.3125 1.375 0.3125q1.09375 0 1.640625 -0.4375q0.546875 -0.4375 0.546875 -1.015625q0 -0.4375 -0.328125 -0.8125q-0.328125 -0.390625 -1.640625 -0.953125q-1.3125 -0.5625 -1.671875 -0.78125q-0.609375 -0.375 -0.921875 -0.875q-0.3125 -0.5156231 -0.3125 -1.1718731q0 -1.140625 0.90625 -1.953125q0.921875 -0.828125 2.5625 -0.828125q1.828125 0 2.765625 0.84375q0.953125 0.84375 1.0 2.21875l-1.609375 0.109375q-0.046875 -0.875 -0.625 -1.390625q-0.578125 -0.515625 -1.65625 -0.515625q-0.84375 0 -1.328125 0.40625q-0.46875 0.390625 -0.46875 0.84375q0 0.453125 0.40625 0.796875q0.28125 0.234375 1.421875 0.7343731q1.890625 0.8125 2.375 1.28125q0.78125 0.765625 0.78125 1.84375q0 0.71875 -0.4375 1.421875q-0.4375 0.6875 -1.34375 1.109375q-0.90625 0.40625 -2.140625 0.40625q-1.671875 0 -2.84375 -0.828125q-1.1875 -0.828125 -1.109375 -2.703125z" fill-rule="nonzero"/><path fill="#000000" fill-opacity="0.0" d="m613.7074 11.091864l171.18109 0l0 44.72441l-171.18109 0z" fill-rule="evenodd"/><path fill="#0f69c9" d="m630.1378 38.01186l2.78125 -13.359373l4.03125 0q1.453125 0 2.21875 0.21875q1.09375 0.28125 1.859375 1.0q0.78125 0.71875 1.171875 1.8125q0.390625 1.078125 0.390625 2.4375q0 1.609375 -0.484375 2.937498q-0.484375 1.3125 -1.28125 2.328125q-0.78125 1.0 -1.640625 1.578125q-0.859375 0.5625 -2.046875 0.84375q-0.890625 0.203125 -2.1875 0.203125l-4.8125 0zm2.109375 -1.515625l2.109375 0q1.4375 0 2.546875 -0.265625q0.6875 -0.15625 1.171875 -0.484375q0.65625 -0.40625 1.1875 -1.078125q0.6875 -0.890625 1.09375 -2.03125q0.421875 -1.1406231 0.421875 -2.609373q0 -1.609375 -0.5625 -2.484375q-0.5625 -0.875 -1.4375 -1.15625q-0.65625 -0.203125 -2.015625 -0.203125l-2.359375 0l-2.15625 10.312498zm17.676025 0.3125q-0.859375 0.734375 -1.65625 1.078125q-0.78125 0.34375 -1.6875 0.34375q-1.34375 0 -2.171875 -0.78125q-0.8125 -0.796875 -0.8125 -2.03125q0 -0.796875 0.375 -1.421875q0.375 -0.625 0.984375 -1.0q0.609375 -0.390625 1.484375 -0.546875q0.5625 -0.109375 2.109375 -0.171875q1.5625 -0.0625 2.234375 -0.3281231q0.1875 -0.671875 0.1875 -1.125q0 -0.578125 -0.421875 -0.90625q-0.5625 -0.453125 -1.671875 -0.453125q-1.03125 0 -1.703125 0.46875q-0.65625 0.453125 -0.953125 1.296875l-1.671875 -0.140625q0.515625 -1.4375 1.609375 -2.203125q1.109375 -0.765625 2.796875 -0.765625q1.796875 0 2.84375 0.859375q0.796875 0.625 0.796875 1.65625q0 0.765625 -0.21875 1.7968731l-0.53125 2.40625q-0.265625 1.140625 -0.265625 1.859375q0 0.453125 0.203125 1.3125l-1.671875 0q-0.125 -0.46875 -0.1875 -1.203125zm0.609375 -3.703125q-0.34375 0.140625 -0.75 0.21875q-0.390625 0.0625 -1.3125 0.15625q-1.4375 0.125 -2.03125 0.328125q-0.59375 0.1875 -0.90625 0.625q-0.296875 0.421875 -0.296875 0.9375q0 0.6875 0.484375 1.140625q0.484375 0.4375 1.359375 0.4375q0.828125 0 1.578125 -0.421875q0.75 -0.4375 1.1875 -1.203125q0.4375 -0.78125 0.6875 -2.21875zm7.0944824 3.5625l-0.265625 1.359375q-0.59375 0.140625 -1.15625 0.140625q-0.984375 0 -1.5625 -0.46875q-0.4375 -0.375 -0.4375 -1.0q0 -0.3125 0.234375 -1.46875l1.171875 -5.624998l-1.296875 0l0.265625 -1.265625l1.296875 0l0.5 -2.375l1.890625 -1.140625l-0.734375 3.515625l1.625 0l-0.28125 1.265625l-1.609375 0l-1.125 5.359373q-0.203125 1.015625 -0.203125 1.21875q0 0.28125 0.15625 0.4375q0.171875 0.15625 0.5625 0.15625q0.546875 0 0.96875 -0.109375zm7.8551636 0.140625q-0.859375 0.734375 -1.65625 1.078125q-0.78125 0.34375 -1.6875 0.34375q-1.34375 0 -2.171875 -0.78125q-0.8125 -0.796875 -0.8125 -2.03125q0 -0.796875 0.375 -1.421875q0.375 -0.625 0.984375 -1.0q0.609375 -0.390625 1.484375 -0.546875q0.5625 -0.109375 2.109375 -0.171875q1.5625 -0.0625 2.234375 -0.3281231q0.1875 -0.671875 0.1875 -1.125q0 -0.578125 -0.421875 -0.90625q-0.5625 -0.453125 -1.671875 -0.453125q-1.03125 0 -1.703125 0.46875q-0.65625 0.453125 -0.953125 1.296875l-1.671875 -0.140625q0.515625 -1.4375 1.609375 -2.203125q1.109375 -0.765625 2.796875 -0.765625q1.796875 0 2.84375 0.859375q0.796875 0.625 0.796875 1.65625q0 0.765625 -0.21875 1.7968731l-0.53125 2.40625q-0.265625 1.140625 -0.265625 1.859375q0 0.453125 0.203125 1.3125l-1.671875 0q-0.125 -0.46875 -0.1875 -1.203125zm0.609375 -3.703125q-0.34375 0.140625 -0.75 0.21875q-0.390625 0.0625 -1.3125 0.15625q-1.4375 0.125 -2.03125 0.328125q-0.59375 0.1875 -0.90625 0.625q-0.296875 0.421875 -0.296875 0.9375q0 0.6875 0.484375 1.140625q0.484375 0.4375 1.359375 0.4375q0.828125 0 1.578125 -0.421875q0.75 -0.4375 1.1875 -1.203125q0.4375 -0.78125 0.6875 -2.21875zm19.059021 0.203125l1.765625 0.25q-0.84375 2.3125 -2.453125 3.5q-1.59375 1.1875 -3.578125 1.1875q-2.4375 0 -3.875 -1.484375q-1.421875 -1.484375 -1.421875 -4.265625q0 -3.609373 2.171875 -5.968748q1.9375 -2.09375 4.796875 -2.09375q2.125 0 3.4375 1.140625q1.328125 1.125 1.53125 3.0625l-1.671875 0.140625q-0.25 -1.4375 -1.078125 -2.15625q-0.828125 -0.71875 -2.125 -0.71875q-2.453125 0 -3.96875 2.1875q-1.3125 1.875 -1.3125 4.453123q0 2.046875 1.015625 3.140625q1.015625 1.078125 2.625 1.078125q1.390625 0 2.5 -0.890625q1.125 -0.90625 1.640625 -2.5625zm3.1292114 1.03125q0 -2.828123 1.671875 -4.687498q1.375 -1.53125 3.609375 -1.53125q1.75 0 2.8125 1.09375q1.078125 1.09375 1.078125 2.953123q0 1.65625 -0.671875 3.09375q-0.671875 1.4375 -1.921875 2.203125q-1.25 0.765625 -2.625 0.765625q-1.125 0 -2.046875 -0.484375q-0.921875 -0.484375 -1.421875 -1.359375q-0.484375 -0.890625 -0.484375 -2.046875zm1.65625 -0.15625q0 1.359375 0.65625 2.0625q0.65625 0.703125 1.65625 0.703125q0.53125 0 1.046875 -0.203125q0.53125 -0.21875 0.96875 -0.65625q0.453125 -0.4375 0.765625 -1.0q0.3125 -0.5625 0.5 -1.203125q0.28125 -0.90625 0.28125 -1.734375q0 -1.3124981 -0.65625 -2.031248q-0.65625 -0.734375 -1.65625 -0.734375q-0.78125 0 -1.421875 0.375q-0.625 0.375 -1.140625 1.09375q-0.515625 0.703125 -0.765625 1.6406231q-0.234375 0.9375 -0.234375 1.6875zm8.438232 3.828125l2.015625 -9.671873l1.5 0l-0.359375 1.6875q0.96875 -1.0 1.8125 -1.453125q0.859375 -0.453125 1.734375 -0.453125q1.1875 0 1.84375 0.640625q0.671875 0.625 0.671875 1.703125q0 0.53125 -0.234375 1.6874981l-1.234375 5.859375l-1.640625 0l1.28125 -6.124998q0.1875 -0.890625 0.1875 -1.328125q0 -0.484375 -0.328125 -0.78125q-0.328125 -0.296875 -0.953125 -0.296875q-1.28125 0 -2.265625 0.90625q-0.984375 0.90625 -1.453125 3.124998l-0.9375 4.5l-1.640625 0zm10.531982 -3.3125l1.640625 -0.09375q0 0.703125 0.21875 1.21875q0.21875 0.5 0.796875 0.8125q0.59375 0.3125 1.375 0.3125q1.09375 0 1.640625 -0.4375q0.546875 -0.4375 0.546875 -1.015625q0 -0.4375 -0.328125 -0.8125q-0.328125 -0.390625 -1.640625 -0.953125q-1.3125 -0.5625 -1.671875 -0.78125q-0.609375 -0.375 -0.921875 -0.875q-0.3125 -0.5156231 -0.3125 -1.1718731q0 -1.140625 0.90625 -1.953125q0.921875 -0.828125 2.5625 -0.828125q1.828125 0 2.765625 0.84375q0.953125 0.84375 1.0 2.21875l-1.609375 0.109375q-0.046875 -0.875 -0.625 -1.390625q-0.578125 -0.515625 -1.65625 -0.515625q-0.84375 0 -1.328125 0.40625q-0.46875 0.390625 -0.46875 0.84375q0 0.453125 0.40625 0.796875q0.28125 0.234375 1.421875 0.7343731q1.890625 0.8125 2.375 1.28125q0.78125 0.765625 0.78125 1.84375q0 0.71875 -0.4375 1.421875q-0.4375 0.6875 -1.34375 1.109375q-0.90625 0.40625 -2.140625 0.40625q-1.671875 0 -2.84375 -0.828125q-1.1875 -0.828125 -1.109375 -2.703125zm15.765625 1.5625q-1.734375 1.96875 -3.5625 1.96875q-1.109375 0 -1.796875 -0.640625q-0.6875 -0.640625 -0.6875 -1.578125q0 -0.609375 0.296875 -2.09375l1.171875 -5.578123l1.65625 0l-1.296875 6.187498q-0.171875 0.765625 -0.171875 1.203125q0 0.546875 0.328125 0.859375q0.34375 0.296875 0.984375 0.296875q0.703125 0 1.359375 -0.328125q0.65625 -0.34375 1.125 -0.921875q0.484375 -0.578125 0.796875 -1.359375q0.1875 -0.5 0.453125 -1.765625l0.875 -4.171873l1.65625 0l-2.03125 9.671873l-1.515625 0l0.359375 -1.75zm3.7662964 1.75l2.015625 -9.671873l1.65625 0l-0.34375 1.59375q0.921875 -1.03125 1.640625 -1.421875q0.734375 -0.390625 1.578125 -0.390625q0.90625 0 1.515625 0.484375q0.609375 0.46875 0.796875 1.328125q0.734375 -0.90625 1.546875 -1.359375q0.8125 -0.453125 1.71875 -0.453125q1.21875 0 1.8125 0.578125q0.609375 0.5625 0.609375 1.609375q0 0.4375 -0.203125 1.46875l-1.3125 6.234373l-1.640625 0l1.328125 -6.390623q0.171875 -0.78125 0.171875 -1.125q0 -0.46875 -0.296875 -0.734375q-0.296875 -0.28125 -0.84375 -0.28125q-0.75 0 -1.515625 0.453125q-0.765625 0.4375 -1.1875 1.171875q-0.421875 0.71875 -0.734375 2.218748l-0.984375 4.6875l-1.65625 0l1.375 -6.531248q0.140625 -0.671875 0.140625 -0.953125q0 -0.46875 -0.296875 -0.75q-0.296875 -0.296875 -0.765625 -0.296875q-0.703125 0 -1.484375 0.453125q-0.765625 0.4375 -1.25 1.234375q-0.46875 0.796875 -0.78125 2.265623l-0.953125 4.578125l-1.65625 0zm22.650208 -3.28125l1.609375 0.15625q-0.34375 1.1875 -1.59375 2.265625q-1.234375 1.078125 -2.96875 1.078125q-1.0625 0 -1.96875 -0.5q-0.890625 -0.5 -1.359375 -1.4375q-0.46875 -0.953125 -0.46875 -2.15625q0 -1.59375 0.734375 -3.078123q0.734375 -1.484375 1.890625 -2.203125q1.171875 -0.734375 2.53125 -0.734375q1.734375 0 2.765625 1.078125q1.03125 1.0625 1.03125 2.921873q0 0.71875 -0.125 1.46875l-7.125 0q-0.046875 0.28125 -0.046875 0.5q0 1.359375 0.625 2.078125q0.625 0.71875 1.53125 0.71875q0.84375 0 1.65625 -0.546875q0.828125 -0.5625 1.28125 -1.609375zm-4.78125 -2.40625l5.421875 0q0.015625 -0.25 0.015625 -0.3593731q0 -1.234375 -0.625 -1.890625q-0.625 -0.671875 -1.59375 -0.671875q-1.0625 0 -1.9375 0.734375q-0.859375 0.71875 -1.28125 2.187498zm8.063232 5.6875l2.015625 -9.671873l1.453125 0l-0.40625 1.96875q0.75 -1.109375 1.453125 -1.640625q0.71875 -0.546875 1.46875 -0.546875q0.5 0 1.21875 0.359375l-0.671875 1.53125q-0.4375 -0.3125 -0.9375 -0.3125q-0.875 0 -1.78125 0.96875q-0.90625 0.953125 -1.4375 3.468748l-0.8125 3.875l-1.5625 0zm6.3688965 -3.3125l1.640625 -0.09375q0 0.703125 0.21875 1.21875q0.21875 0.5 0.796875 0.8125q0.59375 0.3125 1.375 0.3125q1.09375 0 1.640625 -0.4375q0.546875 -0.4375 0.546875 -1.015625q0 -0.4375 -0.328125 -0.8125q-0.328125 -0.390625 -1.640625 -0.953125q-1.3125 -0.5625 -1.671875 -0.78125q-0.609375 -0.375 -0.921875 -0.875q-0.3125 -0.5156231 -0.3125 -1.1718731q0 -1.140625 0.90625 -1.953125q0.921875 -0.828125 2.5625 -0.828125q1.828125 0 2.765625 0.84375q0.953125 0.84375 1.0 2.21875l-1.609375 0.109375q-0.046875 -0.875 -0.625 -1.390625q-0.578125 -0.515625 -1.65625 -0.515625q-0.84375 0 -1.328125 0.40625q-0.46875 0.390625 -0.46875 0.84375q0 0.453125 0.40625 0.796875q0.28125 0.234375 1.421875 0.7343731q1.890625 0.8125 2.375 1.28125q0.78125 0.765625 0.78125 1.84375q0 0.71875 -0.4375 1.421875q-0.4375 0.6875 -1.34375 1.109375q-0.90625 0.40625 -2.140625 0.40625q-1.671875 0 -2.84375 -0.828125q-1.1875 -0.828125 -1.109375 -2.703125z" fill-rule="nonzero"/><path fill="#ffffff" d="m509.4926 180.27296l141.88617 0l0 51.27559l-141.88617 0z" fill-rule="evenodd"/><path stroke="#fc561f" stroke-width="2.0" stroke-linejoin="round" stroke-linecap="butt" d="m509.4926 180.27296l141.88617 0l0 51.27559l-141.88617 0z" fill-rule="evenodd"/><path fill="#ffffff" d="m509.4926 186.0533l141.88617 0l0 39.716522l-141.88617 0z" fill-rule="evenodd"/><path stroke="#fc561f" stroke-width="2.0" stroke-linejoin="round" stroke-linecap="butt" d="m509.4926 186.0533l141.88617 0l0 39.716522l-141.88617 0z" fill-rule="evenodd"/><path fill="#fc561f" d="m534.5294 211.77156l0 -11.453125l3.953125 0q1.328125 0 2.03125 0.15625q0.984375 0.234375 1.6875 0.828125q0.90625 0.765625 1.34375 1.953125q0.453125 1.1875 0.453125 2.71875q0 1.3125 -0.3125 2.328125q-0.296875 1.0 -0.78125 1.65625q-0.46875 0.65625 -1.03125 1.046875q-0.5625 0.375 -1.375 0.578125q-0.796875 0.1875 -1.828125 0.1875l-4.140625 0zm1.515625 -1.359375l2.453125 0q1.125 0 1.765625 -0.203125q0.65625 -0.21875 1.03125 -0.59375q0.546875 -0.546875 0.84375 -1.453125q0.296875 -0.90625 0.296875 -2.203125q0 -1.796875 -0.59375 -2.765625q-0.578125 -0.96875 -1.421875 -1.296875q-0.609375 -0.234375 -1.96875 -0.234375l-2.40625 0l0 8.75zm9.9765625 1.359375l0 -11.453125l4.296875 0q1.3125 0 2.109375 0.34375q0.796875 0.34375 1.234375 1.078125q0.453125 0.71875 0.453125 1.5q0 0.734375 -0.40625 1.390625q-0.390625 0.640625 -1.1875 1.046875q1.03125 0.296875 1.59375 1.03125q0.5625 0.734375 0.5625 1.734375q0 0.8125 -0.34375 1.5q-0.34375 0.6875 -0.84375 1.0625q-0.5 0.375 -1.25 0.578125q-0.75 0.1875 -1.84375 0.1875l-4.375 0zm1.515625 -6.640625l2.484375 0q1.0 0 1.4375 -0.140625q0.578125 -0.171875 0.875 -0.5625q0.296875 -0.40625 0.296875 -1.0q0 -0.578125 -0.28125 -1.0q-0.265625 -0.4375 -0.78125 -0.59375q-0.5 -0.171875 -1.734375 -0.171875l-2.296875 0l0 3.46875zm0 5.28125l2.859375 0q0.734375 0 1.03125 -0.046875q0.515625 -0.09375 0.859375 -0.3125q0.359375 -0.21875 0.578125 -0.640625q0.234375 -0.421875 0.234375 -0.96875q0 -0.640625 -0.328125 -1.109375q-0.328125 -0.46875 -0.90625 -0.65625q-0.578125 -0.203125 -1.671875 -0.203125l-2.65625 0l0 3.9375zm13.1484375 -2.328125l1.4375 -0.125q0.09375 0.859375 0.46875 1.421875q0.375 0.546875 1.15625 0.890625q0.78125 0.328125 1.75 0.328125q0.875 0 1.53125 -0.25q0.671875 -0.265625 0.984375 -0.703125q0.328125 -0.453125 0.328125 -0.984375q0 -0.546875 -0.3125 -0.9375q-0.3125 -0.40625 -1.03125 -0.6875q-0.453125 -0.171875 -2.03125 -0.546875q-1.578125 -0.390625 -2.21875 -0.71875q-0.8125 -0.4375 -1.21875 -1.0625q-0.40625 -0.640625 -0.40625 -1.4375q0 -0.859375 0.484375 -1.609375q0.5 -0.765625 1.4375 -1.15625q0.953125 -0.390625 2.109375 -0.390625q1.28125 0 2.25 0.421875q0.96875 0.40625 1.484375 1.203125q0.53125 0.796875 0.578125 1.796875l-1.453125 0.109375q-0.125 -1.078125 -0.796875 -1.625q-0.671875 -0.5625 -2.0 -0.5625q-1.375 0 -2.0 0.5q-0.625 0.5 -0.625 1.21875q0 0.609375 0.4375 1.015625q0.4375 0.390625 2.28125 0.8125q1.859375 0.421875 2.546875 0.734375q1.0 0.453125 1.46875 1.171875q0.484375 0.703125 0.484375 1.625q0 0.90625 -0.53125 1.71875q-0.515625 0.8125 -1.5 1.265625q-0.984375 0.453125 -2.203125 0.453125q-1.5625 0 -2.609375 -0.453125q-1.046875 -0.46875 -1.65625 -1.375q-0.59375 -0.90625 -0.625 -2.0625zm11.015625 3.6875l0 -8.296875l1.265625 0l0 1.171875q0.90625 -1.359375 2.640625 -1.359375q0.75 0 1.375 0.265625q0.625 0.265625 0.9375 0.703125q0.3125 0.4375 0.4375 1.046875q0.078125 0.390625 0.078125 1.359375l0 5.109375l-1.40625 0l0 -5.046875q0 -0.859375 -0.171875 -1.28125q-0.15625 -0.4375 -0.578125 -0.6875q-0.40625 -0.25 -0.96875 -0.25q-0.90625 0 -1.5625 0.578125q-0.640625 0.5625 -0.640625 2.15625l0 4.53125l-1.40625 0zm14.3046875 -1.03125q-0.78125 0.671875 -1.5 0.953125q-0.71875 0.265625 -1.546875 0.265625q-1.375 0 -2.109375 -0.671875q-0.734375 -0.671875 -0.734375 -1.703125q0 -0.609375 0.28125 -1.109375q0.28125 -0.515625 0.71875 -0.8125q0.453125 -0.3125 1.015625 -0.46875q0.421875 -0.109375 1.25 -0.203125q1.703125 -0.203125 2.515625 -0.484375q0 -0.296875 0 -0.375q0 -0.859375 -0.390625 -1.203125q-0.546875 -0.484375 -1.609375 -0.484375q-0.984375 0 -1.46875 0.359375q-0.46875 0.34375 -0.6875 1.21875l-1.375 -0.1875q0.1875 -0.875 0.609375 -1.421875q0.4375 -0.546875 1.25 -0.828125q0.8125 -0.296875 1.875 -0.296875q1.0625 0 1.71875 0.25q0.671875 0.25 0.984375 0.625q0.3125 0.375 0.4375 0.953125q0.078125 0.359375 0.078125 1.296875l0 1.875q0 1.96875 0.078125 2.484375q0.09375 0.515625 0.359375 1.0l-1.46875 0q-0.21875 -0.4375 -0.28125 -1.03125zm-0.109375 -3.140625q-0.765625 0.3125 -2.296875 0.53125q-0.875 0.125 -1.234375 0.28125q-0.359375 0.15625 -0.5625 0.46875q-0.1875 0.296875 -0.1875 0.65625q0 0.5625 0.421875 0.9375q0.4375 0.375 1.25 0.375q0.8125 0 1.4375 -0.34375q0.640625 -0.359375 0.9375 -0.984375q0.234375 -0.46875 0.234375 -1.40625l0 -0.515625zm3.6015625 7.359375l0 -11.484375l1.28125 0l0 1.078125q0.453125 -0.640625 1.015625 -0.953125q0.578125 -0.3125 1.390625 -0.3125q1.0625 0 1.875 0.546875q0.8125 0.546875 1.21875 1.546875q0.421875 0.984375 0.421875 2.171875q0 1.28125 -0.46875 2.296875q-0.453125 1.015625 -1.328125 1.5625q-0.859375 0.546875 -1.828125 0.546875q-0.703125 0 -1.265625 -0.296875q-0.546875 -0.296875 -0.90625 -0.75l0 4.046875l-1.40625 0zm1.265625 -7.296875q0 1.609375 0.640625 2.375q0.65625 0.765625 1.578125 0.765625q0.9375 0 1.609375 -0.796875q0.671875 -0.796875 0.671875 -2.453125q0 -1.59375 -0.65625 -2.375q-0.65625 -0.796875 -1.5625 -0.796875q-0.890625 0 -1.59375 0.84375q-0.6875 0.84375 -0.6875 2.4375zm7.0703125 1.625l1.390625 -0.21875q0.109375 0.84375 0.640625 1.296875q0.546875 0.4375 1.5 0.4375q0.96875 0 1.4375 -0.390625q0.46875 -0.40625 0.46875 -0.9375q0 -0.46875 -0.40625 -0.75q-0.296875 -0.1875 -1.4375 -0.46875q-1.546875 -0.390625 -2.15625 -0.671875q-0.59375 -0.296875 -0.90625 -0.796875q-0.296875 -0.5 -0.296875 -1.109375q0 -0.5625 0.25 -1.03125q0.25 -0.46875 0.6875 -0.78125q0.328125 -0.25 0.890625 -0.40625q0.578125 -0.171875 1.21875 -0.171875q0.984375 0 1.71875 0.28125q0.734375 0.28125 1.078125 0.765625q0.359375 0.46875 0.5 1.28125l-1.375 0.1875q-0.09375 -0.640625 -0.546875 -1.0q-0.453125 -0.359375 -1.265625 -0.359375q-0.96875 0 -1.390625 0.328125q-0.40625 0.3125 -0.40625 0.734375q0 0.28125 0.171875 0.5q0.171875 0.21875 0.53125 0.375q0.21875 0.078125 1.25 0.359375q1.484375 0.390625 2.078125 0.65625q0.59375 0.25 0.921875 0.734375q0.34375 0.484375 0.34375 1.203125q0 0.703125 -0.421875 1.328125q-0.40625 0.609375 -1.1875 0.953125q-0.765625 0.34375 -1.734375 0.34375q-1.625 0 -2.46875 -0.671875q-0.84375 -0.671875 -1.078125 -2.0zm8.5625 2.484375l0 -11.453125l1.40625 0l0 4.109375q0.984375 -1.140625 2.484375 -1.140625q0.921875 0 1.59375 0.359375q0.6875 0.359375 0.96875 1.0q0.296875 0.640625 0.296875 1.859375l0 5.265625l-1.40625 0l0 -5.265625q0 -1.046875 -0.453125 -1.53125q-0.453125 -0.484375 -1.296875 -0.484375q-0.625 0 -1.171875 0.328125q-0.546875 0.328125 -0.78125 0.890625q-0.234375 0.546875 -0.234375 1.515625l0 4.546875l-1.40625 0zm8.3671875 -4.15625q0 -2.296875 1.28125 -3.40625q1.078125 -0.921875 2.609375 -0.921875q1.71875 0 2.796875 1.125q1.09375 1.109375 1.09375 3.09375q0 1.59375 -0.484375 2.515625q-0.484375 0.921875 -1.40625 1.4375q-0.90625 0.5 -2.0 0.5q-1.734375 0 -2.8125 -1.109375q-1.078125 -1.125 -1.078125 -3.234375zm1.453125 0q0 1.59375 0.6875 2.390625q0.703125 0.796875 1.75 0.796875q1.046875 0 1.734375 -0.796875q0.703125 -0.796875 0.703125 -2.4375q0 -1.53125 -0.703125 -2.328125q-0.6875 -0.796875 -1.734375 -0.796875q-1.046875 0 -1.75 0.796875q-0.6875 0.78125 -0.6875 2.375zm11.0390625 2.890625l0.203125 1.25q-0.59375 0.125 -1.0625 0.125q-0.765625 0 -1.1875 -0.234375q-0.421875 -0.25 -0.59375 -0.640625q-0.171875 -0.40625 -0.171875 -1.671875l0 -4.765625l-1.03125 0l0 -1.09375l1.03125 0l0 -2.0625l1.40625 -0.84375l0 2.90625l1.40625 0l0 1.09375l-1.40625 0l0 4.84375q0 0.609375 0.0625 0.78125q0.078125 0.171875 0.25 0.28125q0.171875 0.09375 0.484375 0.09375q0.234375 0 0.609375 -0.0625z" fill-rule="nonzero"/><path fill="#000000" fill-opacity="0.0" d="m651.3788 205.91156l33.7323 0" fill-rule="evenodd"/><path stroke="#fc561f" stroke-width="2.0" stroke-linejoin="round" stroke-linecap="butt" d="m651.3788 205.91156l26.878113 0" fill-rule="evenodd"/><path fill="#fc561f" stroke="#fc561f" stroke-width="2.0" stroke-linecap="butt" d="m678.2569 205.91156l-2.2492065 2.2491608l6.1795654 -2.2491608l-6.1795654 -2.2491608z" fill-rule="evenodd"/><path fill="#000000" fill-opacity="0.0" d="m311.769 12.270341l171.18109 0l0 44.72441l-171.18109 0z" fill-rule="evenodd"/><path fill="#0f69c9" d="m333.8616 39.19034l2.796875 -13.359373l5.578125 0q1.453125 0 2.171875 0.34375q0.71875 0.328125 1.1875 1.140625q0.484375 0.796875 0.484375 1.796875q0 0.828125 -0.34375 1.6875q-0.328125 0.859375 -0.84375 1.4218731q-0.515625 0.546875 -1.046875 0.828125q-0.53125 0.28125 -1.125 0.421875q-1.28125 0.296875 -2.59375 0.296875l-3.34375 0l-1.125 5.421875l-1.796875 0zm3.234375 -6.9375l2.953125 0q1.703125 0 2.5 -0.3593731q0.8125 -0.375 1.296875 -1.125q0.484375 -0.765625 0.484375 -1.609375q0 -0.65625 -0.265625 -1.0625q-0.25 -0.421875 -0.71875 -0.609375q-0.46875 -0.203125 -1.78125 -0.203125l-3.421875 0l-1.046875 4.968748zm15.631073 5.1875q-1.734375 1.96875 -3.5625 1.96875q-1.109375 0 -1.796875 -0.640625q-0.6875 -0.640625 -0.6875 -1.578125q0 -0.609375 0.296875 -2.09375l1.171875 -5.578123l1.65625 0l-1.296875 6.187498q-0.171875 0.765625 -0.171875 1.203125q0 0.546875 0.328125 0.859375q0.34375 0.296875 0.984375 0.296875q0.703125 0 1.359375 -0.328125q0.65625 -0.34375 1.125 -0.921875q0.484375 -0.578125 0.796875 -1.359375q0.1875 -0.5 0.453125 -1.765625l0.875 -4.171873l1.65625 0l-2.03125 9.671873l-1.515625 0l0.359375 -1.75zm3.781952 1.75l2.78125 -13.359373l1.65625 0l-1.0 4.78125q0.78125 -0.71875 1.421875 -1.015625q0.640625 -0.296875 1.328125 -0.296875q1.359375 0 2.265625 1.015625q0.90625 1.0 0.90625 2.937498q0 1.28125 -0.375 2.359375q-0.359375 1.0625 -0.890625 1.78125q-0.53125 0.71875 -1.109375 1.15625q-0.578125 0.4375 -1.1875 0.640625q-0.59375 0.21875 -1.140625 0.21875q-0.96875 0 -1.703125 -0.5q-0.71875 -0.515625 -1.125 -1.546875l-0.390625 1.828125l-1.4375 0zm2.4375 -3.96875l-0.015625 0.3125q0 1.234375 0.59375 1.890625q0.59375 0.640625 1.484375 0.640625q0.859375 0 1.578125 -0.609375q0.734375 -0.609375 1.1875 -1.890625q0.46875 -1.28125 0.46875 -2.375q0 -1.2187481 -0.59375 -1.8906231q-0.578125 -0.671875 -1.4375 -0.671875q-0.90625 0 -1.65625 0.6875q-0.734375 0.6874981 -1.234375 2.124998q-0.375 1.0625 -0.375 1.78125zm7.7976074 3.96875l2.796875 -13.359373l1.640625 0l-2.78125 13.359373l-1.65625 0zm6.613556 -11.484373l0.40625 -1.875l1.625 0l-0.390625 1.875l-1.640625 0zm-2.390625 11.484373l2.015625 -9.671873l1.65625 0l-2.03125 9.671873l-1.640625 0zm10.879211 -3.53125l1.65625 0.171875q-0.625 1.8125 -1.765625 2.703125q-1.140625 0.875 -2.609375 0.875q-1.578125 0 -2.5625 -1.015625q-0.96875 -1.03125 -0.96875 -2.859375q0 -1.578125 0.625 -3.109375q0.640625 -1.5312481 1.796875 -2.328123q1.171875 -0.796875 2.6875 -0.796875q1.546875 0 2.453125 0.875q0.921875 0.875 0.921875 2.328123l-1.625 0.109375q-0.015625 -0.9218731 -0.546875 -1.4374981q-0.515625 -0.515625 -1.359375 -0.515625q-1.0 0 -1.734375 0.625q-0.71875 0.625 -1.140625 1.9062481q-0.40625 1.28125 -0.40625 2.46875q0 1.234375 0.546875 1.859375q0.546875 0.609375 1.34375 0.609375q0.796875 0 1.53125 -0.609375q0.734375 -0.609375 1.15625 -1.859375zm8.277039 3.53125l2.796875 -13.359373l1.78125 0l-2.796875 13.359373l-1.78125 0zm4.745819 0l2.015625 -9.671873l1.5 0l-0.359375 1.6875q0.96875 -1.0 1.8125 -1.453125q0.859375 -0.453125 1.734375 -0.453125q1.1875 0 1.84375 0.640625q0.671875 0.625 0.671875 1.703125q0 0.5312481 -0.234375 1.6874981l-1.234375 5.859375l-1.640625 0l1.28125 -6.125q0.1875 -0.890625 0.1875 -1.3281231q0 -0.484375 -0.328125 -0.78125q-0.328125 -0.296875 -0.953125 -0.296875q-1.28125 0 -2.265625 0.90625q-0.984375 0.9062481 -1.453125 3.124998l-0.9375 4.5l-1.640625 0zm14.219452 -1.34375l-0.265625 1.359375q-0.59375 0.140625 -1.15625 0.140625q-0.984375 0 -1.5625 -0.46875q-0.4375 -0.375 -0.4375 -1.0q0 -0.3125 0.234375 -1.46875l1.171875 -5.624998l-1.296875 0l0.265625 -1.265625l1.296875 0l0.5 -2.375l1.890625 -1.140625l-0.734375 3.515625l1.625 0l-0.28125 1.265625l-1.609375 0l-1.125 5.359373q-0.203125 1.015625 -0.203125 1.21875q0 0.28125 0.15625 0.4375q0.171875 0.15625 0.5625 0.15625q0.546875 0 0.96875 -0.109375zm8.433319 -1.9375l1.609375 0.15625q-0.34375 1.1875 -1.59375 2.265625q-1.234375 1.078125 -2.96875 1.078125q-1.0625 0 -1.96875 -0.5q-0.890625 -0.5 -1.359375 -1.4375q-0.46875 -0.953125 -0.46875 -2.15625q0 -1.59375 0.734375 -3.078125q0.734375 -1.4843731 1.890625 -2.203123q1.171875 -0.734375 2.53125 -0.734375q1.734375 0 2.765625 1.078125q1.03125 1.0625 1.03125 2.921873q0 0.71875 -0.125 1.46875l-7.125 0q-0.046875 0.28125 -0.046875 0.5q0 1.359375 0.625 2.078125q0.625 0.71875 1.53125 0.71875q0.84375 0 1.65625 -0.546875q0.828125 -0.5625 1.28125 -1.609375zm-4.78125 -2.40625l5.421875 0q0.015625 -0.25 0.015625 -0.359375q0 -1.2343731 -0.625 -1.8906231q-0.625 -0.671875 -1.59375 -0.671875q-1.0625 0 -1.9375 0.734375q-0.859375 0.7187481 -1.28125 2.187498zm8.063202 5.6875l2.015625 -9.671873l1.453125 0l-0.40625 1.96875q0.75 -1.109375 1.453125 -1.640625q0.71875 -0.546875 1.46875 -0.546875q0.5 0 1.21875 0.359375l-0.671875 1.53125q-0.4375 -0.3125 -0.9375 -0.3125q-0.875 0 -1.78125 0.96875q-0.90625 0.9531231 -1.4375 3.468748l-0.8125 3.875l-1.5625 0zm6.431427 0l1.765625 -8.406248l-1.484375 0l0.265625 -1.265625l1.484375 0l0.28125 -1.375q0.21875 -1.03125 0.4375 -1.484375q0.234375 -0.453125 0.75 -0.75q0.53125 -0.296875 1.4375 -0.296875q0.625 0 1.828125 0.265625l-0.296875 1.4375q-0.84375 -0.21875 -1.40625 -0.21875q-0.484375 0 -0.734375 0.25q-0.25 0.234375 -0.4375 1.125l-0.21875 1.046875l1.84375 0l-0.265625 1.265625l-1.84375 0l-1.75 8.406248l-1.65625 0zm11.480194 -1.203125q-0.859375 0.734375 -1.65625 1.078125q-0.78125 0.34375 -1.6875 0.34375q-1.34375 0 -2.171875 -0.78125q-0.8125 -0.796875 -0.8125 -2.03125q0 -0.796875 0.375 -1.421875q0.375 -0.625 0.984375 -1.0q0.609375 -0.390625 1.484375 -0.546875q0.5625 -0.109375 2.109375 -0.171875q1.5625 -0.0625 2.234375 -0.328125q0.1875 -0.671875 0.1875 -1.125q0 -0.5781231 -0.421875 -0.9062481q-0.5625 -0.453125 -1.671875 -0.453125q-1.03125 0 -1.703125 0.46875q-0.65625 0.453125 -0.953125 1.2968731l-1.671875 -0.140625q0.515625 -1.4374981 1.609375 -2.203123q1.109375 -0.765625 2.796875 -0.765625q1.796875 0 2.84375 0.859375q0.796875 0.625 0.796875 1.65625q0 0.7656231 -0.21875 1.7968731l-0.53125 2.40625q-0.265625 1.140625 -0.265625 1.859375q0 0.453125 0.203125 1.3125l-1.671875 0q-0.125 -0.46875 -0.1875 -1.203125zm0.609375 -3.703125q-0.34375 0.140625 -0.75 0.21875q-0.390625 0.0625 -1.3125 0.15625q-1.4375 0.125 -2.03125 0.328125q-0.59375 0.1875 -0.90625 0.625q-0.296875 0.421875 -0.296875 0.9375q0 0.6875 0.484375 1.140625q0.484375 0.4375 1.359375 0.4375q0.828125 0 1.578125 -0.421875q0.75 -0.4375 1.1875 -1.203125q0.4375 -0.78125 0.6875 -2.21875zm9.922607 1.375l1.65625 0.171875q-0.625 1.8125 -1.765625 2.703125q-1.140625 0.875 -2.609375 0.875q-1.578125 0 -2.5625 -1.015625q-0.96875 -1.03125 -0.96875 -2.859375q0 -1.578125 0.625 -3.109375q0.640625 -1.5312481 1.796875 -2.328123q1.171875 -0.796875 2.6875 -0.796875q1.546875 0 2.453125 0.875q0.921875 0.875 0.921875 2.328123l-1.625 0.109375q-0.015625 -0.9218731 -0.546875 -1.4374981q-0.515625 -0.515625 -1.359375 -0.515625q-1.0 0 -1.734375 0.625q-0.71875 0.625 -1.140625 1.9062481q-0.40625 1.28125 -0.40625 2.46875q0 1.234375 0.546875 1.859375q0.546875 0.609375 1.34375 0.609375q0.796875 0 1.53125 -0.609375q0.734375 -0.609375 1.15625 -1.859375zm9.75 0.25l1.609375 0.15625q-0.34375 1.1875 -1.59375 2.265625q-1.234375 1.078125 -2.96875 1.078125q-1.0625 0 -1.96875 -0.5q-0.890625 -0.5 -1.359375 -1.4375q-0.46875 -0.953125 -0.46875 -2.15625q0 -1.59375 0.734375 -3.078125q0.734375 -1.4843731 1.890625 -2.203123q1.171875 -0.734375 2.53125 -0.734375q1.734375 0 2.765625 1.078125q1.03125 1.0625 1.03125 2.921873q0 0.71875 -0.125 1.46875l-7.125 0q-0.046875 0.28125 -0.046875 0.5q0 1.359375 0.625 2.078125q0.625 0.71875 1.53125 0.71875q0.84375 0 1.65625 -0.546875q0.828125 -0.5625 1.28125 -1.609375zm-4.78125 -2.40625l5.421875 0q0.015625 -0.25 0.015625 -0.359375q0 -1.2343731 -0.625 -1.8906231q-0.625 -0.671875 -1.59375 -0.671875q-1.0625 0 -1.9375 0.734375q-0.859375 0.7187481 -1.28125 2.187498z" fill-rule="nonzero"/><path fill="#000000" fill-opacity="0.0" d="m481.4824 20.517162l0 335.0551" fill-rule="evenodd"/><path stroke="#0f69c9" stroke-width="2.0" stroke-linejoin="round" stroke-linecap="butt" stroke-dasharray="8.0,6.0" d="m481.4824 20.517162l0 335.0551" fill-rule="evenodd"/><path fill="#000000" fill-opacity="0.0" d="m315.35696 172.875l160.40945 0l0 40.0l-160.40945 0z" fill-rule="evenodd"/><path fill="#0f69c9" d="m330.52264 197.235l0 -11.453125l1.5625 0l6.015625 8.984375l0 -8.984375l1.453125 0l0 11.453125l-1.5625 0l-6.015625 -9.0l0 9.0l-1.453125 0zm10.8671875 -4.15625q0 -2.296875 1.28125 -3.40625q1.078125 -0.921875 2.609375 -0.921875q1.71875 0 2.796875 1.125q1.09375 1.109375 1.09375 3.09375q0 1.59375 -0.484375 2.515625q-0.484375 0.921875 -1.40625 1.4375q-0.90625 0.5 -2.0 0.5q-1.734375 0 -2.8125 -1.109375q-1.078125 -1.125 -1.078125 -3.234375zm1.453125 0q0 1.59375 0.6875 2.390625q0.703125 0.796875 1.75 0.796875q1.046875 0 1.734375 -0.796875q0.703125 -0.796875 0.703125 -2.4375q0 -1.53125 -0.703125 -2.328125q-0.6875 -0.796875 -1.734375 -0.796875q-1.046875 0 -1.75 0.796875q-0.6875 0.78125 -0.6875 2.375zm12.421875 7.34375l0 -11.484375l1.28125 0l0 1.078125q0.453125 -0.640625 1.015625 -0.953125q0.578125 -0.3125 1.390625 -0.3125q1.0625 0 1.875 0.546875q0.8125 0.546875 1.21875 1.546875q0.421875 0.984375 0.421875 2.171875q0 1.28125 -0.46875 2.296875q-0.453125 1.015625 -1.328125 1.5625q-0.859375 0.546875 -1.828125 0.546875q-0.703125 0 -1.265625 -0.296875q-0.546875 -0.296875 -0.90625 -0.75l0 4.046875l-1.40625 0zm1.265625 -7.296875q0 1.609375 0.640625 2.375q0.65625 0.765625 1.578125 0.765625q0.9375 0 1.609375 -0.796875q0.671875 -0.796875 0.671875 -2.453125q0 -1.59375 -0.65625 -2.375q-0.65625 -0.796875 -1.5625 -0.796875q-0.890625 0 -1.59375 0.84375q-0.6875 0.84375 -0.6875 2.4375zm13.0703125 4.109375l0 -1.21875q-0.96875 1.40625 -2.640625 1.40625q-0.734375 0 -1.375 -0.28125q-0.625 -0.28125 -0.9375 -0.703125q-0.3125 -0.4375 -0.4375 -1.046875q-0.078125 -0.421875 -0.078125 -1.3125l0 -5.140625l1.40625 0l0 4.59375q0 1.109375 0.078125 1.484375q0.140625 0.5625 0.5625 0.875q0.4375 0.3125 1.0625 0.3125q0.640625 0 1.1875 -0.3125q0.5625 -0.328125 0.78125 -0.890625q0.234375 -0.5625 0.234375 -1.625l0 -4.4375l1.40625 0l0 8.296875l-1.25 0zm4.7578125 0l-1.3125 0l0 -11.453125l1.40625 0l0 4.078125q0.890625 -1.109375 2.28125 -1.109375q0.765625 0 1.4375 0.3125q0.6875 0.296875 1.125 0.859375q0.453125 0.5625 0.703125 1.359375q0.25 0.78125 0.25 1.671875q0 2.140625 -1.0625 3.3125q-1.046875 1.15625 -2.53125 1.15625q-1.46875 0 -2.296875 -1.234375l0 1.046875zm-0.015625 -4.21875q0 1.5 0.40625 2.15625q0.65625 1.09375 1.796875 1.09375q0.921875 0 1.59375 -0.796875q0.671875 -0.8125 0.671875 -2.390625q0 -1.625 -0.65625 -2.390625q-0.640625 -0.78125 -1.546875 -0.78125q-0.921875 0 -1.59375 0.796875q-0.671875 0.796875 -0.671875 2.3125zm7.5859375 4.21875l0 -11.453125l1.40625 0l0 11.453125l-1.40625 0zm3.5859375 -9.84375l0 -1.609375l1.40625 0l0 1.609375l-1.40625 0zm0 9.84375l0 -8.296875l1.40625 0l0 8.296875l-1.40625 0zm8.9609375 -3.046875l1.390625 0.1875q-0.234375 1.421875 -1.171875 2.234375q-0.921875 0.8125 -2.28125 0.8125q-1.703125 0 -2.75 -1.109375q-1.03125 -1.125 -1.03125 -3.203125q0 -1.34375 0.4375 -2.34375q0.453125 -1.015625 1.359375 -1.515625q0.921875 -0.5 1.984375 -0.5q1.359375 0 2.21875 0.6875q0.859375 0.671875 1.09375 1.9375l-1.359375 0.203125q-0.203125 -0.828125 -0.703125 -1.25q-0.484375 -0.421875 -1.1875 -0.421875q-1.0625 0 -1.734375 0.765625q-0.65625 0.75 -0.65625 2.40625q0 1.671875 0.640625 2.4375q0.640625 0.75 1.671875 0.75q0.828125 0 1.375 -0.5q0.5625 -0.515625 0.703125 -1.578125zm7.0390625 -6.796875l0 -1.609375l1.40625 0l0 1.609375l-1.40625 0zm0 9.84375l0 -8.296875l1.40625 0l0 8.296875l-1.40625 0zm3.5546875 0l0 -8.296875l1.265625 0l0 1.171875q0.90625 -1.359375 2.640625 -1.359375q0.75 0 1.375 0.265625q0.625 0.265625 0.9375 0.703125q0.3125 0.4375 0.4375 1.046875q0.078125 0.390625 0.078125 1.359375l0 5.109375l-1.40625 0l0 -5.046875q0 -0.859375 -0.171875 -1.28125q-0.15625 -0.4375 -0.578125 -0.6875q-0.40625 -0.25 -0.96875 -0.25q-0.90625 0 -1.5625 0.578125q-0.640625 0.5625 -0.640625 2.15625l0 4.53125l-1.40625 0zm11.9609375 -1.265625l0.203125 1.25q-0.59375 0.125 -1.0625 0.125q-0.765625 0 -1.1875 -0.234375q-0.421875 -0.25 -0.59375 -0.640625q-0.171875 -0.40625 -0.171875 -1.671875l0 -4.765625l-1.03125 0l0 -1.09375l1.03125 0l0 -2.0625l1.40625 -0.84375l0 2.90625l1.40625 0l0 1.09375l-1.40625 0l0 4.84375q0 0.609375 0.0625 0.78125q0.078125 0.171875 0.25 0.28125q0.171875 0.09375 0.484375 0.09375q0.234375 0 0.609375 -0.0625zm7.0546875 -1.40625l1.453125 0.171875q-0.34375 1.28125 -1.28125 1.984375q-0.921875 0.703125 -2.359375 0.703125q-1.828125 0 -2.890625 -1.125q-1.0625 -1.125 -1.0625 -3.140625q0 -2.09375 1.078125 -3.25q1.078125 -1.15625 2.796875 -1.15625q1.65625 0 2.703125 1.140625q1.0625 1.125 1.0625 3.171875q0 0.125 0 0.375l-6.1875 0q0.078125 1.375 0.765625 2.109375q0.703125 0.71875 1.734375 0.71875q0.78125 0 1.328125 -0.40625q0.546875 -0.40625 0.859375 -1.296875zm-4.609375 -2.28125l4.625 0q-0.09375 -1.046875 -0.53125 -1.5625q-0.671875 -0.8125 -1.734375 -0.8125q-0.96875 0 -1.640625 0.65625q-0.65625 0.640625 -0.71875 1.71875zm7.8203125 4.953125l0 -8.296875l1.265625 0l0 1.25q0.484375 -0.875 0.890625 -1.15625q0.40625 -0.28125 0.90625 -0.28125q0.703125 0 1.4375 0.453125l-0.484375 1.296875q-0.515625 -0.296875 -1.03125 -0.296875q-0.453125 0 -0.828125 0.28125q-0.359375 0.265625 -0.515625 0.765625q-0.234375 0.75 -0.234375 1.640625l0 4.34375l-1.40625 0zm5.671875 0l0 -7.203125l-1.234375 0l0 -1.09375l1.234375 0l0 -0.890625q0 -0.828125 0.15625 -1.234375q0.203125 -0.546875 0.703125 -0.890625q0.515625 -0.34375 1.4375 -0.34375q0.59375 0 1.3125 0.140625l-0.203125 1.234375q-0.4375 -0.078125 -0.828125 -0.078125q-0.640625 0 -0.90625 0.28125q-0.265625 0.265625 -0.265625 1.015625l0 0.765625l1.609375 0l0 1.09375l-1.609375 0l0 7.203125l-1.40625 0zm9.5234375 -1.03125q-0.78125 0.671875 -1.5 0.953125q-0.71875 0.265625 -1.546875 0.265625q-1.375 0 -2.109375 -0.671875q-0.734375 -0.671875 -0.734375 -1.703125q0 -0.609375 0.28125 -1.109375q0.28125 -0.515625 0.71875 -0.8125q0.453125 -0.3125 1.015625 -0.46875q0.421875 -0.109375 1.25 -0.203125q1.703125 -0.203125 2.515625 -0.484375q0 -0.296875 0 -0.375q0 -0.859375 -0.390625 -1.203125q-0.546875 -0.484375 -1.609375 -0.484375q-0.984375 0 -1.46875 0.359375q-0.46875 0.34375 -0.6875 1.21875l-1.375 -0.1875q0.1875 -0.875 0.609375 -1.421875q0.4375 -0.546875 1.25 -0.828125q0.8125 -0.296875 1.875 -0.296875q1.0625 0 1.71875 0.25q0.671875 0.25 0.984375 0.625q0.3125 0.375 0.4375 0.953125q0.078125 0.359375 0.078125 1.296875l0 1.875q0 1.96875 0.078125 2.484375q0.09375 0.515625 0.359375 1.0l-1.46875 0q-0.21875 -0.4375 -0.28125 -1.03125zm-0.109375 -3.140625q-0.765625 0.3125 -2.296875 0.53125q-0.875 0.125 -1.234375 0.28125q-0.359375 0.15625 -0.5625 0.46875q-0.1875 0.296875 -0.1875 0.65625q0 0.5625 0.421875 0.9375q0.4375 0.375 1.25 0.375q0.8125 0 1.4375 -0.34375q0.640625 -0.359375 0.9375 -0.984375q0.234375 -0.46875 0.234375 -1.40625l0 -0.515625zm9.0078125 1.125l1.390625 0.1875q-0.234375 1.421875 -1.171875 2.234375q-0.921875 0.8125 -2.28125 0.8125q-1.703125 0 -2.75 -1.109375q-1.03125 -1.125 -1.03125 -3.203125q0 -1.34375 0.4375 -2.34375q0.453125 -1.015625 1.359375 -1.515625q0.921875 -0.5 1.984375 -0.5q1.359375 0 2.21875 0.6875q0.859375 0.671875 1.09375 1.9375l-1.359375 0.203125q-0.203125 -0.828125 -0.703125 -1.25q-0.484375 -0.421875 -1.1875 -0.421875q-1.0625 0 -1.734375 0.765625q-0.65625 0.75 -0.65625 2.40625q0 1.671875 0.640625 2.4375q0.640625 0.75 1.671875 0.75q0.828125 0 1.375 -0.5q0.5625 -0.515625 0.703125 -1.578125zm8.265625 0.375l1.453125 0.171875q-0.34375 1.28125 -1.28125 1.984375q-0.921875 0.703125 -2.359375 0.703125q-1.828125 0 -2.890625 -1.125q-1.0625 -1.125 -1.0625 -3.140625q0 -2.09375 1.078125 -3.25q1.078125 -1.15625 2.796875 -1.15625q1.65625 0 2.703125 1.140625q1.0625 1.125 1.0625 3.171875q0 0.125 0 0.375l-6.1875 0q0.078125 1.375 0.765625 2.109375q0.703125 0.71875 1.734375 0.71875q0.78125 0 1.328125 -0.40625q0.546875 -0.40625 0.859375 -1.296875zm-4.609375 -2.28125l4.625 0q-0.09375 -1.046875 -0.53125 -1.5625q-0.671875 -0.8125 -1.734375 -0.8125q-0.96875 0 -1.640625 0.65625q-0.65625 0.640625 -0.71875 1.71875z" fill-rule="nonzero"/></g></svg>